# MagicaVoxel @ Ephtracy

# group
o 

# material
mtllib Gate.mtl
usemtl palette

# normals
vn -1 0 0
vn 1 0 0
vn 0 0 1
vn 0 0 -1
vn 0 -1 0
vn 0 1 0

# texcoords
vt 0.943359 0.5
vt 0.947266 0.5
vt 0.994141 0.5

# verts
v -12.8 0 0.3
v -12.8 0 -0.2
v -12.8 0.3 0.3
v -12.8 0.3 -0.2
v 12.8 0 0.3
v 12.8 0 -0.2
v 12.8 0.3 0.3
v 12.8 0.3 -0.2
v -12.8 0 0.3
v -12.8 0.3 0.3
v -12.7 0.1 0.3
v -12.7 0.2 0.3
v -12.6 0.1 0.3
v -12.6 0.2 0.3
v -12.5 0.1 0.3
v -12.5 0.2 0.3
v -12.1 0.1 0.3
v -12.1 0.2 0.3
v -11.9 0.1 0.3
v -11.9 0.2 0.3
v -11.7 0.1 0.3
v -11.7 0.2 0.3
v -11.6 0.1 0.3
v -11.6 0.2 0.3
v -11 0.1 0.3
v -11 0.2 0.3
v -10.7 0.1 0.3
v -10.7 0.2 0.3
v -10.4 0.1 0.3
v -10.4 0.2 0.3
v -10 0.1 0.3
v -10 0.2 0.3
v -9.6 0.1 0.3
v -9.6 0.2 0.3
v -9.4 0.1 0.3
v -9.4 0.2 0.3
v -9.2 0.1 0.3
v -9.2 0.2 0.3
v -9.1 0.1 0.3
v -9.1 0.2 0.3
v -9 0.1 0.3
v -9 0.2 0.3
v -8.8 0.1 0.3
v -8.8 0.2 0.3
v -8.2 0.1 0.3
v -8.2 0.2 0.3
v -7.7 0.1 0.3
v -7.7 0.2 0.3
v -7.3 0.1 0.3
v -7.3 0.2 0.3
v -6.9 0.1 0.3
v -6.9 0.2 0.3
v -6.5 0.1 0.3
v -6.5 0.2 0.3
v -6.3 0.1 0.3
v -6.3 0.2 0.3
v -6.2 0.1 0.3
v -6.2 0.2 0.3
v -5.8 0.1 0.3
v -5.8 0.2 0.3
v -5.4 0.1 0.3
v -5.4 0.2 0.3
v -5.3 0.1 0.3
v -5.3 0.2 0.3
v -5.1 0.1 0.3
v -5.1 0.2 0.3
v -5 0.1 0.3
v -5 0.2 0.3
v -4.8 0.1 0.3
v -4.8 0.2 0.3
v -4.5 0.1 0.3
v -4.5 0.2 0.3
v -4.4 0.1 0.3
v -4.4 0.2 0.3
v -4.3 0.1 0.3
v -4.3 0.2 0.3
v -4.1 0.1 0.3
v -4.1 0.2 0.3
v -3.9 0.1 0.3
v -3.9 0.2 0.3
v -3.8 0.1 0.3
v -3.8 0.2 0.3
v -3.3 0.1 0.3
v -3.3 0.2 0.3
v -2.8 0.1 0.3
v -2.8 0.2 0.3
v -2.2 0.1 0.3
v -2.2 0.2 0.3
v -2.1 0.1 0.3
v -2.1 0.2 0.3
v -1.7 0.1 0.3
v -1.7 0.2 0.3
v -1.3 0.1 0.3
v -1.3 0.2 0.3
v -0.6 0.1 0.3
v -0.6 0.2 0.3
v 0.0999994 0.1 0.3
v 0.0999994 0.2 0.3
v 0.5 0.1 0.3
v 0.5 0.2 0.3
v 0.599999 0.1 0.3
v 0.599999 0.2 0.3
v 1.1 0.1 0.3
v 1.1 0.2 0.3
v 1.7 0.1 0.3
v 1.7 0.2 0.3
v 2.2 0.1 0.3
v 2.2 0.2 0.3
v 2.3 0.1 0.3
v 2.3 0.2 0.3
v 2.6 0.1 0.3
v 2.6 0.2 0.3
v 2.7 0.1 0.3
v 2.7 0.2 0.3
v 2.9 0.1 0.3
v 2.9 0.2 0.3
v 3 0.1 0.3
v 3 0.2 0.3
v 3.3 0.1 0.3
v 3.3 0.2 0.3
v 3.8 0.1 0.3
v 3.8 0.2 0.3
v 4 0.1 0.3
v 4 0.2 0.3
v 4.2 0.1 0.3
v 4.2 0.2 0.3
v 4.3 0.1 0.3
v 4.3 0.2 0.3
v 4.9 0.1 0.3
v 4.9 0.2 0.3
v 5.1 0.1 0.3
v 5.1 0.2 0.3
v 5.2 0.1 0.3
v 5.2 0.2 0.3
v 5.7 0.1 0.3
v 5.7 0.2 0.3
v 5.8 0.1 0.3
v 5.8 0.2 0.3
v 6 0.1 0.3
v 6 0.2 0.3
v 6.6 0.1 0.3
v 6.6 0.2 0.3
v 7.2 0.1 0.3
v 7.2 0.2 0.3
v 7.3 0.1 0.3
v 7.3 0.2 0.3
v 7.7 0.1 0.3
v 7.7 0.2 0.3
v 8.5 0.1 0.3
v 8.5 0.2 0.3
v 8.6 0.1 0.3
v 8.6 0.2 0.3
v 8.7 0.1 0.3
v 8.7 0.2 0.3
v 8.8 0.1 0.3
v 8.8 0.2 0.3
v 8.9 0.1 0.3
v 8.9 0.2 0.3
v 9.1 0.1 0.3
v 9.1 0.2 0.3
v 9.2 0.1 0.3
v 9.2 0.2 0.3
v 9.6 0.1 0.3
v 9.6 0.2 0.3
v 10.3 0.1 0.3
v 10.3 0.2 0.3
v 10.5 0.1 0.3
v 10.5 0.2 0.3
v 10.6 0.1 0.3
v 10.6 0.2 0.3
v 11.1 0.1 0.3
v 11.1 0.2 0.3
v 11.5 0.1 0.3
v 11.5 0.2 0.3
v 11.9 0.1 0.3
v 11.9 0.2 0.3
v 12.4 0.1 0.3
v 12.4 0.2 0.3
v 12.8 0 0.3
v 12.8 0.3 0.3
v -12.8 0 -0.2
v -12.8 0.3 -0.2
v -12.6 0.1 -0.2
v -12.6 0.2 -0.2
v -12.2 0.1 -0.2
v -12.2 0.2 -0.2
v -11.9 0.1 -0.2
v -11.9 0.2 -0.2
v -11.8 0.1 -0.2
v -11.8 0.2 -0.2
v -11.6 0.1 -0.2
v -11.6 0.2 -0.2
v -11.5 0.1 -0.2
v -11.5 0.2 -0.2
v -11.4 0.1 -0.2
v -11.4 0.2 -0.2
v -11 0.1 -0.2
v -11 0.2 -0.2
v -10.8 0.1 -0.2
v -10.8 0.2 -0.2
v -10.7 0.1 -0.2
v -10.7 0.2 -0.2
v -10.3 0.1 -0.2
v -10.3 0.2 -0.2
v -9.7 0.1 -0.2
v -9.7 0.2 -0.2
v -9.5 0.1 -0.2
v -9.5 0.2 -0.2
v -9.4 0.1 -0.2
v -9.4 0.2 -0.2
v -9.2 0.1 -0.2
v -9.2 0.2 -0.2
v -9.1 0.1 -0.2
v -9.1 0.2 -0.2
v -8.9 0.1 -0.2
v -8.9 0.2 -0.2
v -8.5 0.1 -0.2
v -8.5 0.2 -0.2
v -8 0.1 -0.2
v -8 0.2 -0.2
v -7.2 0.1 -0.2
v -7.2 0.2 -0.2
v -6.4 0.1 -0.2
v -6.4 0.2 -0.2
v -6.3 0.1 -0.2
v -6.3 0.2 -0.2
v -5.5 0.1 -0.2
v -5.5 0.2 -0.2
v -4.8 0.1 -0.2
v -4.8 0.2 -0.2
v -4.1 0.1 -0.2
v -4.1 0.2 -0.2
v -4 0.1 -0.2
v -4 0.2 -0.2
v -3.6 0.1 -0.2
v -3.6 0.2 -0.2
v -3.1 0.1 -0.2
v -3.1 0.2 -0.2
v -2.7 0.1 -0.2
v -2.7 0.2 -0.2
v -2.2 0.1 -0.2
v -2.2 0.2 -0.2
v -1.8 0.1 -0.2
v -1.8 0.2 -0.2
v -1.6 0.1 -0.2
v -1.6 0.2 -0.2
v -1.5 0.1 -0.2
v -1.5 0.2 -0.2
v -1.1 0.1 -0.2
v -1.1 0.2 -0.2
v -0.8 0.1 -0.2
v -0.8 0.2 -0.2
v -0.700001 0.1 -0.2
v -0.700001 0.2 -0.2
v -0.400001 0.1 -0.2
v -0.400001 0.2 -0.2
v 0.0999994 0.1 -0.2
v 0.0999994 0.2 -0.2
v 0.299999 0.1 -0.2
v 0.299999 0.2 -0.2
v 0.4 0.1 -0.2
v 0.4 0.2 -0.2
v 0.5 0.1 -0.2
v 0.5 0.2 -0.2
v 0.7 0.1 -0.2
v 0.7 0.2 -0.2
v 0.9 0.1 -0.2
v 0.9 0.2 -0.2
v 1 0.1 -0.2
v 1 0.2 -0.2
v 1.5 0.1 -0.2
v 1.5 0.2 -0.2
v 2 0.1 -0.2
v 2 0.2 -0.2
v 2.1 0.1 -0.2
v 2.1 0.2 -0.2
v 2.2 0.1 -0.2
v 2.2 0.2 -0.2
v 2.8 0.1 -0.2
v 2.8 0.2 -0.2
v 3.2 0.1 -0.2
v 3.2 0.2 -0.2
v 3.5 0.1 -0.2
v 3.5 0.2 -0.2
v 3.6 0.1 -0.2
v 3.6 0.2 -0.2
v 3.7 0.1 -0.2
v 3.7 0.2 -0.2
v 4 0.1 -0.2
v 4 0.2 -0.2
v 4.4 0.1 -0.2
v 4.4 0.2 -0.2
v 4.7 0.1 -0.2
v 4.7 0.2 -0.2
v 5.1 0.1 -0.2
v 5.1 0.2 -0.2
v 5.6 0.1 -0.2
v 5.6 0.2 -0.2
v 5.7 0.1 -0.2
v 5.7 0.2 -0.2
v 5.8 0.1 -0.2
v 5.8 0.2 -0.2
v 6.2 0.1 -0.2
v 6.2 0.2 -0.2
v 6.6 0.1 -0.2
v 6.6 0.2 -0.2
v 6.9 0.1 -0.2
v 6.9 0.2 -0.2
v 7 0.1 -0.2
v 7 0.2 -0.2
v 7.5 0.1 -0.2
v 7.5 0.2 -0.2
v 7.6 0.1 -0.2
v 7.6 0.2 -0.2
v 8.2 0.1 -0.2
v 8.2 0.2 -0.2
v 8.6 0.1 -0.2
v 8.6 0.2 -0.2
v 9.1 0.1 -0.2
v 9.1 0.2 -0.2
v 9.6 0.1 -0.2
v 9.6 0.2 -0.2
v 9.8 0.1 -0.2
v 9.8 0.2 -0.2
v 9.9 0.1 -0.2
v 9.9 0.2 -0.2
v 10.3 0.1 -0.2
v 10.3 0.2 -0.2
v 10.4 0.1 -0.2
v 10.4 0.2 -0.2
v 10.9 0.1 -0.2
v 10.9 0.2 -0.2
v 11 0.1 -0.2
v 11 0.2 -0.2
v 11.3 0.1 -0.2
v 11.3 0.2 -0.2
v 11.7 0.1 -0.2
v 11.7 0.2 -0.2
v 11.9 0.1 -0.2
v 11.9 0.2 -0.2
v 12 0.1 -0.2
v 12 0.2 -0.2
v 12.2 0.1 -0.2
v 12.2 0.2 -0.2
v 12.5 0.1 -0.2
v 12.5 0.2 -0.2
v 12.6 0.1 -0.2
v 12.6 0.2 -0.2
v 12.7 0.1 -0.2
v 12.7 0.2 -0.2
v 12.8 0 -0.2
v 12.8 0.3 -0.2
v -12.8 0 0.3
v 12.8 0 0.3
v -12.8 0 -0.2
v 12.8 0 -0.2
v -12.8 0.3 0.3
v 12.8 0.3 0.3
v -12.8 0.3 -0.2
v 12.8 0.3 -0.2

# faces
f 3/3/1 2/3/1 1/3/1
f 4/3/1 2/3/1 3/3/1
f 5/3/2 6/3/2 7/3/2
f 7/3/2 6/3/2 8/3/2
f 11/3/3 10/3/3 9/3/3
f 12/3/3 10/3/3 11/3/3
f 13/3/3 11/3/3 9/3/3
f 13/2/3 12/2/3 11/2/3
f 14/3/3 10/3/3 12/3/3
f 14/2/3 12/2/3 13/2/3
f 15/3/3 13/3/3 9/3/3
f 15/3/3 14/3/3 13/3/3
f 16/3/3 10/3/3 14/3/3
f 16/3/3 14/3/3 15/3/3
f 17/3/3 15/3/3 9/3/3
f 17/2/3 16/2/3 15/2/3
f 18/3/3 10/3/3 16/3/3
f 18/2/3 16/2/3 17/2/3
f 19/3/3 17/3/3 9/3/3
f 19/3/3 18/3/3 17/3/3
f 20/3/3 10/3/3 18/3/3
f 20/3/3 18/3/3 19/3/3
f 21/3/3 19/3/3 9/3/3
f 21/2/3 20/2/3 19/2/3
f 22/3/3 10/3/3 20/3/3
f 22/2/3 20/2/3 21/2/3
f 23/3/3 21/3/3 9/3/3
f 23/3/3 22/3/3 21/3/3
f 24/3/3 10/3/3 22/3/3
f 24/3/3 22/3/3 23/3/3
f 25/3/3 23/3/3 9/3/3
f 25/2/3 24/2/3 23/2/3
f 26/3/3 10/3/3 24/3/3
f 26/2/3 24/2/3 25/2/3
f 27/3/3 25/3/3 9/3/3
f 27/3/3 26/3/3 25/3/3
f 28/3/3 10/3/3 26/3/3
f 28/3/3 26/3/3 27/3/3
f 29/3/3 27/3/3 9/3/3
f 29/2/3 28/2/3 27/2/3
f 30/3/3 10/3/3 28/3/3
f 30/2/3 28/2/3 29/2/3
f 31/3/3 29/3/3 9/3/3
f 31/3/3 30/3/3 29/3/3
f 32/3/3 10/3/3 30/3/3
f 32/3/3 30/3/3 31/3/3
f 33/3/3 31/3/3 9/3/3
f 33/2/3 32/2/3 31/2/3
f 34/3/3 10/3/3 32/3/3
f 34/2/3 32/2/3 33/2/3
f 35/3/3 33/3/3 9/3/3
f 35/3/3 34/3/3 33/3/3
f 36/3/3 10/3/3 34/3/3
f 36/3/3 34/3/3 35/3/3
f 37/3/3 35/3/3 9/3/3
f 37/2/3 36/2/3 35/2/3
f 38/3/3 10/3/3 36/3/3
f 38/2/3 36/2/3 37/2/3
f 39/3/3 37/3/3 9/3/3
f 39/3/3 38/3/3 37/3/3
f 40/3/3 10/3/3 38/3/3
f 40/3/3 38/3/3 39/3/3
f 41/3/3 39/3/3 9/3/3
f 41/2/3 40/2/3 39/2/3
f 42/3/3 10/3/3 40/3/3
f 42/2/3 40/2/3 41/2/3
f 43/3/3 41/3/3 9/3/3
f 43/3/3 42/3/3 41/3/3
f 44/3/3 10/3/3 42/3/3
f 44/3/3 42/3/3 43/3/3
f 45/3/3 43/3/3 9/3/3
f 45/2/3 44/2/3 43/2/3
f 46/3/3 10/3/3 44/3/3
f 46/2/3 44/2/3 45/2/3
f 47/3/3 45/3/3 9/3/3
f 47/3/3 46/3/3 45/3/3
f 48/3/3 10/3/3 46/3/3
f 48/3/3 46/3/3 47/3/3
f 49/3/3 47/3/3 9/3/3
f 49/2/3 48/2/3 47/2/3
f 50/3/3 10/3/3 48/3/3
f 50/2/3 48/2/3 49/2/3
f 51/3/3 49/3/3 9/3/3
f 51/3/3 50/3/3 49/3/3
f 52/3/3 10/3/3 50/3/3
f 52/3/3 50/3/3 51/3/3
f 53/3/3 51/3/3 9/3/3
f 53/2/3 52/2/3 51/2/3
f 54/3/3 10/3/3 52/3/3
f 54/2/3 52/2/3 53/2/3
f 55/3/3 53/3/3 9/3/3
f 55/3/3 54/3/3 53/3/3
f 56/3/3 10/3/3 54/3/3
f 56/3/3 54/3/3 55/3/3
f 57/3/3 55/3/3 9/3/3
f 57/2/3 56/2/3 55/2/3
f 58/3/3 10/3/3 56/3/3
f 58/2/3 56/2/3 57/2/3
f 59/3/3 57/3/3 9/3/3
f 59/3/3 58/3/3 57/3/3
f 60/3/3 10/3/3 58/3/3
f 60/3/3 58/3/3 59/3/3
f 61/3/3 59/3/3 9/3/3
f 61/2/3 60/2/3 59/2/3
f 62/3/3 10/3/3 60/3/3
f 62/2/3 60/2/3 61/2/3
f 63/3/3 61/3/3 9/3/3
f 63/3/3 62/3/3 61/3/3
f 64/3/3 10/3/3 62/3/3
f 64/3/3 62/3/3 63/3/3
f 65/3/3 63/3/3 9/3/3
f 65/2/3 64/2/3 63/2/3
f 66/3/3 10/3/3 64/3/3
f 66/2/3 64/2/3 65/2/3
f 67/3/3 65/3/3 9/3/3
f 67/3/3 66/3/3 65/3/3
f 68/3/3 10/3/3 66/3/3
f 68/3/3 66/3/3 67/3/3
f 69/3/3 67/3/3 9/3/3
f 69/2/3 68/2/3 67/2/3
f 70/3/3 10/3/3 68/3/3
f 70/2/3 68/2/3 69/2/3
f 71/3/3 69/3/3 9/3/3
f 71/3/3 70/3/3 69/3/3
f 72/3/3 10/3/3 70/3/3
f 72/3/3 70/3/3 71/3/3
f 73/3/3 71/3/3 9/3/3
f 73/2/3 72/2/3 71/2/3
f 74/3/3 10/3/3 72/3/3
f 74/2/3 72/2/3 73/2/3
f 75/3/3 73/3/3 9/3/3
f 75/3/3 74/3/3 73/3/3
f 76/3/3 10/3/3 74/3/3
f 76/3/3 74/3/3 75/3/3
f 77/3/3 75/3/3 9/3/3
f 77/2/3 76/2/3 75/2/3
f 78/3/3 10/3/3 76/3/3
f 78/2/3 76/2/3 77/2/3
f 79/3/3 77/3/3 9/3/3
f 79/3/3 78/3/3 77/3/3
f 80/3/3 10/3/3 78/3/3
f 80/3/3 78/3/3 79/3/3
f 81/3/3 79/3/3 9/3/3
f 81/2/3 80/2/3 79/2/3
f 82/3/3 10/3/3 80/3/3
f 82/2/3 80/2/3 81/2/3
f 83/3/3 81/3/3 9/3/3
f 83/3/3 82/3/3 81/3/3
f 84/3/3 10/3/3 82/3/3
f 84/3/3 82/3/3 83/3/3
f 85/3/3 83/3/3 9/3/3
f 85/2/3 84/2/3 83/2/3
f 86/3/3 10/3/3 84/3/3
f 86/2/3 84/2/3 85/2/3
f 87/3/3 85/3/3 9/3/3
f 87/3/3 86/3/3 85/3/3
f 88/3/3 10/3/3 86/3/3
f 88/3/3 86/3/3 87/3/3
f 89/3/3 87/3/3 9/3/3
f 89/2/3 88/2/3 87/2/3
f 90/3/3 10/3/3 88/3/3
f 90/2/3 88/2/3 89/2/3
f 91/3/3 89/3/3 9/3/3
f 91/3/3 90/3/3 89/3/3
f 92/3/3 10/3/3 90/3/3
f 92/3/3 90/3/3 91/3/3
f 93/3/3 91/3/3 9/3/3
f 93/2/3 92/2/3 91/2/3
f 94/3/3 10/3/3 92/3/3
f 94/2/3 92/2/3 93/2/3
f 95/3/3 93/3/3 9/3/3
f 95/3/3 94/3/3 93/3/3
f 96/3/3 10/3/3 94/3/3
f 96/3/3 94/3/3 95/3/3
f 97/3/3 95/3/3 9/3/3
f 97/2/3 96/2/3 95/2/3
f 98/3/3 10/3/3 96/3/3
f 98/2/3 96/2/3 97/2/3
f 99/3/3 97/3/3 9/3/3
f 99/3/3 98/3/3 97/3/3
f 100/3/3 10/3/3 98/3/3
f 100/3/3 98/3/3 99/3/3
f 101/3/3 99/3/3 9/3/3
f 101/2/3 100/2/3 99/2/3
f 102/3/3 10/3/3 100/3/3
f 102/2/3 100/2/3 101/2/3
f 103/3/3 101/3/3 9/3/3
f 103/3/3 102/3/3 101/3/3
f 104/3/3 10/3/3 102/3/3
f 104/3/3 102/3/3 103/3/3
f 105/3/3 103/3/3 9/3/3
f 105/2/3 104/2/3 103/2/3
f 106/3/3 10/3/3 104/3/3
f 106/2/3 104/2/3 105/2/3
f 107/3/3 105/3/3 9/3/3
f 107/3/3 106/3/3 105/3/3
f 108/3/3 10/3/3 106/3/3
f 108/3/3 106/3/3 107/3/3
f 109/3/3 107/3/3 9/3/3
f 109/2/3 108/2/3 107/2/3
f 110/3/3 10/3/3 108/3/3
f 110/2/3 108/2/3 109/2/3
f 111/3/3 109/3/3 9/3/3
f 111/3/3 110/3/3 109/3/3
f 112/3/3 10/3/3 110/3/3
f 112/3/3 110/3/3 111/3/3
f 113/3/3 111/3/3 9/3/3
f 113/2/3 112/2/3 111/2/3
f 114/3/3 10/3/3 112/3/3
f 114/2/3 112/2/3 113/2/3
f 115/3/3 113/3/3 9/3/3
f 115/3/3 114/3/3 113/3/3
f 116/3/3 10/3/3 114/3/3
f 116/3/3 114/3/3 115/3/3
f 117/3/3 115/3/3 9/3/3
f 117/2/3 116/2/3 115/2/3
f 118/3/3 10/3/3 116/3/3
f 118/2/3 116/2/3 117/2/3
f 119/3/3 117/3/3 9/3/3
f 119/3/3 118/3/3 117/3/3
f 120/3/3 10/3/3 118/3/3
f 120/3/3 118/3/3 119/3/3
f 121/3/3 119/3/3 9/3/3
f 121/2/3 120/2/3 119/2/3
f 122/3/3 10/3/3 120/3/3
f 122/2/3 120/2/3 121/2/3
f 123/3/3 121/3/3 9/3/3
f 123/3/3 122/3/3 121/3/3
f 124/3/3 10/3/3 122/3/3
f 124/3/3 122/3/3 123/3/3
f 125/3/3 123/3/3 9/3/3
f 125/2/3 124/2/3 123/2/3
f 126/3/3 10/3/3 124/3/3
f 126/2/3 124/2/3 125/2/3
f 127/3/3 125/3/3 9/3/3
f 127/3/3 126/3/3 125/3/3
f 128/3/3 10/3/3 126/3/3
f 128/3/3 126/3/3 127/3/3
f 129/3/3 127/3/3 9/3/3
f 129/2/3 128/2/3 127/2/3
f 130/3/3 10/3/3 128/3/3
f 130/2/3 128/2/3 129/2/3
f 131/3/3 129/3/3 9/3/3
f 131/3/3 130/3/3 129/3/3
f 132/3/3 10/3/3 130/3/3
f 132/3/3 130/3/3 131/3/3
f 133/3/3 131/3/3 9/3/3
f 133/2/3 132/2/3 131/2/3
f 134/3/3 10/3/3 132/3/3
f 134/2/3 132/2/3 133/2/3
f 135/3/3 133/3/3 9/3/3
f 135/3/3 134/3/3 133/3/3
f 136/3/3 10/3/3 134/3/3
f 136/3/3 134/3/3 135/3/3
f 137/3/3 135/3/3 9/3/3
f 137/2/3 136/2/3 135/2/3
f 138/3/3 10/3/3 136/3/3
f 138/2/3 136/2/3 137/2/3
f 139/3/3 137/3/3 9/3/3
f 139/3/3 138/3/3 137/3/3
f 140/3/3 10/3/3 138/3/3
f 140/3/3 138/3/3 139/3/3
f 141/3/3 139/3/3 9/3/3
f 141/2/3 140/2/3 139/2/3
f 142/3/3 10/3/3 140/3/3
f 142/2/3 140/2/3 141/2/3
f 143/3/3 141/3/3 9/3/3
f 143/3/3 142/3/3 141/3/3
f 144/3/3 10/3/3 142/3/3
f 144/3/3 142/3/3 143/3/3
f 145/3/3 143/3/3 9/3/3
f 145/2/3 144/2/3 143/2/3
f 146/3/3 10/3/3 144/3/3
f 146/2/3 144/2/3 145/2/3
f 147/3/3 145/3/3 9/3/3
f 147/3/3 146/3/3 145/3/3
f 148/3/3 10/3/3 146/3/3
f 148/3/3 146/3/3 147/3/3
f 149/3/3 147/3/3 9/3/3
f 149/2/3 148/2/3 147/2/3
f 150/3/3 10/3/3 148/3/3
f 150/2/3 148/2/3 149/2/3
f 151/3/3 149/3/3 9/3/3
f 151/3/3 150/3/3 149/3/3
f 152/3/3 10/3/3 150/3/3
f 152/3/3 150/3/3 151/3/3
f 153/3/3 151/3/3 9/3/3
f 153/2/3 152/2/3 151/2/3
f 154/3/3 10/3/3 152/3/3
f 154/2/3 152/2/3 153/2/3
f 155/3/3 153/3/3 9/3/3
f 155/3/3 154/3/3 153/3/3
f 156/3/3 10/3/3 154/3/3
f 156/3/3 154/3/3 155/3/3
f 157/3/3 155/3/3 9/3/3
f 157/2/3 156/2/3 155/2/3
f 158/3/3 10/3/3 156/3/3
f 158/2/3 156/2/3 157/2/3
f 159/3/3 157/3/3 9/3/3
f 159/3/3 158/3/3 157/3/3
f 160/3/3 10/3/3 158/3/3
f 160/3/3 158/3/3 159/3/3
f 161/3/3 159/3/3 9/3/3
f 161/2/3 160/2/3 159/2/3
f 162/3/3 10/3/3 160/3/3
f 162/2/3 160/2/3 161/2/3
f 163/3/3 161/3/3 9/3/3
f 163/3/3 162/3/3 161/3/3
f 164/3/3 10/3/3 162/3/3
f 164/3/3 162/3/3 163/3/3
f 165/3/3 163/3/3 9/3/3
f 165/2/3 164/2/3 163/2/3
f 166/3/3 10/3/3 164/3/3
f 166/2/3 164/2/3 165/2/3
f 167/3/3 165/3/3 9/3/3
f 167/3/3 166/3/3 165/3/3
f 168/3/3 10/3/3 166/3/3
f 168/3/3 166/3/3 167/3/3
f 169/3/3 167/3/3 9/3/3
f 169/2/3 168/2/3 167/2/3
f 170/3/3 10/3/3 168/3/3
f 170/2/3 168/2/3 169/2/3
f 171/3/3 169/3/3 9/3/3
f 171/3/3 170/3/3 169/3/3
f 172/3/3 10/3/3 170/3/3
f 172/3/3 170/3/3 171/3/3
f 173/3/3 171/3/3 9/3/3
f 173/2/3 172/2/3 171/2/3
f 174/3/3 10/3/3 172/3/3
f 174/2/3 172/2/3 173/2/3
f 175/3/3 173/3/3 9/3/3
f 175/3/3 174/3/3 173/3/3
f 176/3/3 10/3/3 174/3/3
f 176/3/3 174/3/3 175/3/3
f 177/3/3 175/3/3 9/3/3
f 177/2/3 176/2/3 175/2/3
f 178/3/3 10/3/3 176/3/3
f 178/2/3 176/2/3 177/2/3
f 179/3/3 177/3/3 9/3/3
f 179/3/3 178/3/3 177/3/3
f 180/3/3 10/3/3 178/3/3
f 180/3/3 178/3/3 179/3/3
f 181/3/4 182/3/4 183/3/4
f 183/3/4 182/3/4 184/3/4
f 181/3/4 183/3/4 185/3/4
f 183/1/4 184/1/4 185/1/4
f 184/3/4 182/3/4 186/3/4
f 185/1/4 184/1/4 186/1/4
f 181/3/4 185/3/4 187/3/4
f 185/3/4 186/3/4 187/3/4
f 186/3/4 182/3/4 188/3/4
f 187/3/4 186/3/4 188/3/4
f 181/3/4 187/3/4 189/3/4
f 187/1/4 188/1/4 189/1/4
f 188/3/4 182/3/4 190/3/4
f 189/1/4 188/1/4 190/1/4
f 181/3/4 189/3/4 191/3/4
f 189/3/4 190/3/4 191/3/4
f 190/3/4 182/3/4 192/3/4
f 191/3/4 190/3/4 192/3/4
f 181/3/4 191/3/4 193/3/4
f 191/1/4 192/1/4 193/1/4
f 192/3/4 182/3/4 194/3/4
f 193/1/4 192/1/4 194/1/4
f 181/3/4 193/3/4 195/3/4
f 193/3/4 194/3/4 195/3/4
f 194/3/4 182/3/4 196/3/4
f 195/3/4 194/3/4 196/3/4
f 181/3/4 195/3/4 197/3/4
f 195/1/4 196/1/4 197/1/4
f 196/3/4 182/3/4 198/3/4
f 197/1/4 196/1/4 198/1/4
f 181/3/4 197/3/4 199/3/4
f 197/3/4 198/3/4 199/3/4
f 198/3/4 182/3/4 200/3/4
f 199/3/4 198/3/4 200/3/4
f 181/3/4 199/3/4 201/3/4
f 199/1/4 200/1/4 201/1/4
f 200/3/4 182/3/4 202/3/4
f 201/1/4 200/1/4 202/1/4
f 181/3/4 201/3/4 203/3/4
f 201/3/4 202/3/4 203/3/4
f 202/3/4 182/3/4 204/3/4
f 203/3/4 202/3/4 204/3/4
f 181/3/4 203/3/4 205/3/4
f 203/1/4 204/1/4 205/1/4
f 204/3/4 182/3/4 206/3/4
f 205/1/4 204/1/4 206/1/4
f 181/3/4 205/3/4 207/3/4
f 205/3/4 206/3/4 207/3/4
f 206/3/4 182/3/4 208/3/4
f 207/3/4 206/3/4 208/3/4
f 181/3/4 207/3/4 209/3/4
f 207/1/4 208/1/4 209/1/4
f 208/3/4 182/3/4 210/3/4
f 209/1/4 208/1/4 210/1/4
f 181/3/4 209/3/4 211/3/4
f 209/3/4 210/3/4 211/3/4
f 210/3/4 182/3/4 212/3/4
f 211/3/4 210/3/4 212/3/4
f 181/3/4 211/3/4 213/3/4
f 211/1/4 212/1/4 213/1/4
f 212/3/4 182/3/4 214/3/4
f 213/1/4 212/1/4 214/1/4
f 181/3/4 213/3/4 215/3/4
f 213/3/4 214/3/4 215/3/4
f 214/3/4 182/3/4 216/3/4
f 215/3/4 214/3/4 216/3/4
f 181/3/4 215/3/4 217/3/4
f 215/1/4 216/1/4 217/1/4
f 216/3/4 182/3/4 218/3/4
f 217/1/4 216/1/4 218/1/4
f 181/3/4 217/3/4 219/3/4
f 217/3/4 218/3/4 219/3/4
f 218/3/4 182/3/4 220/3/4
f 219/3/4 218/3/4 220/3/4
f 181/3/4 219/3/4 221/3/4
f 219/1/4 220/1/4 221/1/4
f 220/3/4 182/3/4 222/3/4
f 221/1/4 220/1/4 222/1/4
f 181/3/4 221/3/4 223/3/4
f 221/3/4 222/3/4 223/3/4
f 222/3/4 182/3/4 224/3/4
f 223/3/4 222/3/4 224/3/4
f 181/3/4 223/3/4 225/3/4
f 223/1/4 224/1/4 225/1/4
f 224/3/4 182/3/4 226/3/4
f 225/1/4 224/1/4 226/1/4
f 181/3/4 225/3/4 227/3/4
f 225/3/4 226/3/4 227/3/4
f 226/3/4 182/3/4 228/3/4
f 227/3/4 226/3/4 228/3/4
f 181/3/4 227/3/4 229/3/4
f 227/1/4 228/1/4 229/1/4
f 228/3/4 182/3/4 230/3/4
f 229/1/4 228/1/4 230/1/4
f 181/3/4 229/3/4 231/3/4
f 229/3/4 230/3/4 231/3/4
f 230/3/4 182/3/4 232/3/4
f 231/3/4 230/3/4 232/3/4
f 181/3/4 231/3/4 233/3/4
f 231/1/4 232/1/4 233/1/4
f 232/3/4 182/3/4 234/3/4
f 233/1/4 232/1/4 234/1/4
f 181/3/4 233/3/4 235/3/4
f 233/3/4 234/3/4 235/3/4
f 234/3/4 182/3/4 236/3/4
f 235/3/4 234/3/4 236/3/4
f 181/3/4 235/3/4 237/3/4
f 235/1/4 236/1/4 237/1/4
f 236/3/4 182/3/4 238/3/4
f 237/1/4 236/1/4 238/1/4
f 181/3/4 237/3/4 239/3/4
f 237/3/4 238/3/4 239/3/4
f 238/3/4 182/3/4 240/3/4
f 239/3/4 238/3/4 240/3/4
f 181/3/4 239/3/4 241/3/4
f 239/1/4 240/1/4 241/1/4
f 240/3/4 182/3/4 242/3/4
f 241/1/4 240/1/4 242/1/4
f 181/3/4 241/3/4 243/3/4
f 241/3/4 242/3/4 243/3/4
f 242/3/4 182/3/4 244/3/4
f 243/3/4 242/3/4 244/3/4
f 181/3/4 243/3/4 245/3/4
f 243/1/4 244/1/4 245/1/4
f 244/3/4 182/3/4 246/3/4
f 245/1/4 244/1/4 246/1/4
f 181/3/4 245/3/4 247/3/4
f 245/3/4 246/3/4 247/3/4
f 246/3/4 182/3/4 248/3/4
f 247/3/4 246/3/4 248/3/4
f 181/3/4 247/3/4 249/3/4
f 247/1/4 248/1/4 249/1/4
f 248/3/4 182/3/4 250/3/4
f 249/1/4 248/1/4 250/1/4
f 181/3/4 249/3/4 251/3/4
f 249/3/4 250/3/4 251/3/4
f 250/3/4 182/3/4 252/3/4
f 251/3/4 250/3/4 252/3/4
f 181/3/4 251/3/4 253/3/4
f 251/1/4 252/1/4 253/1/4
f 252/3/4 182/3/4 254/3/4
f 253/1/4 252/1/4 254/1/4
f 181/3/4 253/3/4 255/3/4
f 253/3/4 254/3/4 255/3/4
f 254/3/4 182/3/4 256/3/4
f 255/3/4 254/3/4 256/3/4
f 181/3/4 255/3/4 257/3/4
f 255/1/4 256/1/4 257/1/4
f 256/3/4 182/3/4 258/3/4
f 257/1/4 256/1/4 258/1/4
f 181/3/4 257/3/4 259/3/4
f 257/3/4 258/3/4 259/3/4
f 258/3/4 182/3/4 260/3/4
f 259/3/4 258/3/4 260/3/4
f 181/3/4 259/3/4 261/3/4
f 259/1/4 260/1/4 261/1/4
f 260/3/4 182/3/4 262/3/4
f 261/1/4 260/1/4 262/1/4
f 181/3/4 261/3/4 263/3/4
f 261/3/4 262/3/4 263/3/4
f 262/3/4 182/3/4 264/3/4
f 263/3/4 262/3/4 264/3/4
f 181/3/4 263/3/4 265/3/4
f 263/1/4 264/1/4 265/1/4
f 264/3/4 182/3/4 266/3/4
f 265/1/4 264/1/4 266/1/4
f 181/3/4 265/3/4 267/3/4
f 265/3/4 266/3/4 267/3/4
f 266/3/4 182/3/4 268/3/4
f 267/3/4 266/3/4 268/3/4
f 181/3/4 267/3/4 269/3/4
f 267/1/4 268/1/4 269/1/4
f 268/3/4 182/3/4 270/3/4
f 269/1/4 268/1/4 270/1/4
f 181/3/4 269/3/4 271/3/4
f 269/3/4 270/3/4 271/3/4
f 270/3/4 182/3/4 272/3/4
f 271/3/4 270/3/4 272/3/4
f 181/3/4 271/3/4 273/3/4
f 271/1/4 272/1/4 273/1/4
f 272/3/4 182/3/4 274/3/4
f 273/1/4 272/1/4 274/1/4
f 181/3/4 273/3/4 275/3/4
f 273/3/4 274/3/4 275/3/4
f 274/3/4 182/3/4 276/3/4
f 275/3/4 274/3/4 276/3/4
f 181/3/4 275/3/4 277/3/4
f 275/1/4 276/1/4 277/1/4
f 276/3/4 182/3/4 278/3/4
f 277/1/4 276/1/4 278/1/4
f 181/3/4 277/3/4 279/3/4
f 277/3/4 278/3/4 279/3/4
f 278/3/4 182/3/4 280/3/4
f 279/3/4 278/3/4 280/3/4
f 181/3/4 279/3/4 281/3/4
f 279/1/4 280/1/4 281/1/4
f 280/3/4 182/3/4 282/3/4
f 281/1/4 280/1/4 282/1/4
f 181/3/4 281/3/4 283/3/4
f 281/3/4 282/3/4 283/3/4
f 282/3/4 182/3/4 284/3/4
f 283/3/4 282/3/4 284/3/4
f 181/3/4 283/3/4 285/3/4
f 283/1/4 284/1/4 285/1/4
f 284/3/4 182/3/4 286/3/4
f 285/1/4 284/1/4 286/1/4
f 181/3/4 285/3/4 287/3/4
f 285/3/4 286/3/4 287/3/4
f 286/3/4 182/3/4 288/3/4
f 287/3/4 286/3/4 288/3/4
f 181/3/4 287/3/4 289/3/4
f 287/1/4 288/1/4 289/1/4
f 288/3/4 182/3/4 290/3/4
f 289/1/4 288/1/4 290/1/4
f 181/3/4 289/3/4 291/3/4
f 289/3/4 290/3/4 291/3/4
f 290/3/4 182/3/4 292/3/4
f 291/3/4 290/3/4 292/3/4
f 181/3/4 291/3/4 293/3/4
f 291/1/4 292/1/4 293/1/4
f 292/3/4 182/3/4 294/3/4
f 293/1/4 292/1/4 294/1/4
f 181/3/4 293/3/4 295/3/4
f 293/3/4 294/3/4 295/3/4
f 294/3/4 182/3/4 296/3/4
f 295/3/4 294/3/4 296/3/4
f 181/3/4 295/3/4 297/3/4
f 295/1/4 296/1/4 297/1/4
f 296/3/4 182/3/4 298/3/4
f 297/1/4 296/1/4 298/1/4
f 181/3/4 297/3/4 299/3/4
f 297/3/4 298/3/4 299/3/4
f 298/3/4 182/3/4 300/3/4
f 299/3/4 298/3/4 300/3/4
f 181/3/4 299/3/4 301/3/4
f 299/1/4 300/1/4 301/1/4
f 300/3/4 182/3/4 302/3/4
f 301/1/4 300/1/4 302/1/4
f 181/3/4 301/3/4 303/3/4
f 301/3/4 302/3/4 303/3/4
f 302/3/4 182/3/4 304/3/4
f 303/3/4 302/3/4 304/3/4
f 181/3/4 303/3/4 305/3/4
f 303/1/4 304/1/4 305/1/4
f 304/3/4 182/3/4 306/3/4
f 305/1/4 304/1/4 306/1/4
f 181/3/4 305/3/4 307/3/4
f 305/3/4 306/3/4 307/3/4
f 306/3/4 182/3/4 308/3/4
f 307/3/4 306/3/4 308/3/4
f 181/3/4 307/3/4 309/3/4
f 307/1/4 308/1/4 309/1/4
f 308/3/4 182/3/4 310/3/4
f 309/1/4 308/1/4 310/1/4
f 181/3/4 309/3/4 311/3/4
f 309/3/4 310/3/4 311/3/4
f 310/3/4 182/3/4 312/3/4
f 311/3/4 310/3/4 312/3/4
f 181/3/4 311/3/4 313/3/4
f 311/1/4 312/1/4 313/1/4
f 312/3/4 182/3/4 314/3/4
f 313/1/4 312/1/4 314/1/4
f 181/3/4 313/3/4 315/3/4
f 313/3/4 314/3/4 315/3/4
f 314/3/4 182/3/4 316/3/4
f 315/3/4 314/3/4 316/3/4
f 181/3/4 315/3/4 317/3/4
f 315/1/4 316/1/4 317/1/4
f 316/3/4 182/3/4 318/3/4
f 317/1/4 316/1/4 318/1/4
f 181/3/4 317/3/4 319/3/4
f 317/3/4 318/3/4 319/3/4
f 318/3/4 182/3/4 320/3/4
f 319/3/4 318/3/4 320/3/4
f 181/3/4 319/3/4 321/3/4
f 319/1/4 320/1/4 321/1/4
f 320/3/4 182/3/4 322/3/4
f 321/1/4 320/1/4 322/1/4
f 181/3/4 321/3/4 323/3/4
f 321/3/4 322/3/4 323/3/4
f 322/3/4 182/3/4 324/3/4
f 323/3/4 322/3/4 324/3/4
f 181/3/4 323/3/4 325/3/4
f 323/1/4 324/1/4 325/1/4
f 324/3/4 182/3/4 326/3/4
f 325/1/4 324/1/4 326/1/4
f 181/3/4 325/3/4 327/3/4
f 325/3/4 326/3/4 327/3/4
f 326/3/4 182/3/4 328/3/4
f 327/3/4 326/3/4 328/3/4
f 181/3/4 327/3/4 329/3/4
f 327/1/4 328/1/4 329/1/4
f 328/3/4 182/3/4 330/3/4
f 329/1/4 328/1/4 330/1/4
f 181/3/4 329/3/4 331/3/4
f 329/3/4 330/3/4 331/3/4
f 330/3/4 182/3/4 332/3/4
f 331/3/4 330/3/4 332/3/4
f 181/3/4 331/3/4 333/3/4
f 331/1/4 332/1/4 333/1/4
f 332/3/4 182/3/4 334/3/4
f 333/1/4 332/1/4 334/1/4
f 181/3/4 333/3/4 335/3/4
f 333/3/4 334/3/4 335/3/4
f 334/3/4 182/3/4 336/3/4
f 335/3/4 334/3/4 336/3/4
f 181/3/4 335/3/4 337/3/4
f 335/1/4 336/1/4 337/1/4
f 336/3/4 182/3/4 338/3/4
f 337/1/4 336/1/4 338/1/4
f 181/3/4 337/3/4 339/3/4
f 337/3/4 338/3/4 339/3/4
f 338/3/4 182/3/4 340/3/4
f 339/3/4 338/3/4 340/3/4
f 181/3/4 339/3/4 341/3/4
f 339/1/4 340/1/4 341/1/4
f 340/3/4 182/3/4 342/3/4
f 341/1/4 340/1/4 342/1/4
f 181/3/4 341/3/4 343/3/4
f 341/3/4 342/3/4 343/3/4
f 342/3/4 182/3/4 344/3/4
f 343/3/4 342/3/4 344/3/4
f 181/3/4 343/3/4 345/3/4
f 343/1/4 344/1/4 345/1/4
f 344/3/4 182/3/4 346/3/4
f 345/1/4 344/1/4 346/1/4
f 181/3/4 345/3/4 347/3/4
f 345/3/4 346/3/4 347/3/4
f 346/3/4 182/3/4 348/3/4
f 347/3/4 346/3/4 348/3/4
f 181/3/4 347/3/4 349/3/4
f 347/1/4 348/1/4 349/1/4
f 348/3/4 182/3/4 350/3/4
f 349/1/4 348/1/4 350/1/4
f 181/3/4 349/3/4 351/3/4
f 349/3/4 350/3/4 351/3/4
f 350/3/4 182/3/4 352/3/4
f 351/3/4 350/3/4 352/3/4
f 355/3/5 354/3/5 353/3/5
f 356/3/5 354/3/5 355/3/5
f 357/3/6 358/3/6 359/3/6
f 359/3/6 358/3/6 360/3/6
