# MagicaVoxel @ Ephtracy

# group
o 

# material
mtllib House09.mtl
usemtl palette

# normals
vn -1 0 0
vn 1 0 0
vn 0 0 1
vn 0 0 -1
vn 0 -1 0
vn 0 1 0

# texcoords
vt 0.306641 0.5
vt 0.947266 0.5
vt 0.951172 0.5
vt 0.955078 0.5
vt 0.994141 0.5

# verts
v -3.2 3.9 3.2
v -3.2 3.9 -3.2
v -3.2 4 3.2
v -3.2 4 -3.2
v -3.1 0 3.1
v -3.1 0 -3.1
v -3.1 3.9 3.1
v -3.1 3.9 -3.1
v -2.9 0.5 3.2
v -2.9 0.5 3.1
v -2.9 0.6 3.2
v -2.9 0.6 3.1
v -2.9 2.6 3.2
v -2.9 2.6 3.1
v -2.9 2.7 3.2
v -2.9 2.7 3.1
v -1.4 0.5 3.2
v -1.4 0.5 3.1
v -1.4 0.6 3.2
v -1.4 0.6 3.1
v -1.4 2.6 3.2
v -1.4 2.6 3.1
v -1.4 2.7 3.2
v -1.4 2.7 3.1
v 0.2 2.6 3.2
v 0.2 2.6 3.1
v 0.2 2.7 3.2
v 0.2 2.7 3.1
v 1.7 2.6 3.2
v 1.7 2.6 3.1
v 1.7 2.7 3.2
v 1.7 2.7 3.1
v 2.9 0 3.1
v 2.9 0 2.9
v 2.9 2 3.1
v 2.9 2 2.9
v -1.7 0.5 3.2
v -1.7 0.5 3.1
v -1.7 0.6 3.2
v -1.7 0.6 3.1
v -1.7 2.6 3.2
v -1.7 2.6 3.1
v -1.7 2.7 3.2
v -1.7 2.7 3.1
v -0.2 0.5 3.2
v -0.2 0.5 3.1
v -0.2 0.6 3.2
v -0.2 0.6 3.1
v -0.2 2.6 3.2
v -0.2 2.6 3.1
v -0.2 2.7 3.2
v -0.2 2.7 3.1
v 0.9 0 3.1
v 0.9 0 2
v 0.9 0 0.9
v 0.9 0.5 3.1
v 0.9 0.5 3
v 0.9 0.6 3
v 0.9 0.6 2.9
v 0.9 0.7 3
v 0.9 0.7 2.9
v 0.9 0.8 3.1
v 0.9 0.8 3
v 0.9 2 3.1
v 0.9 2 2
v 0.9 2 0.9
v 1.4 2.6 3.2
v 1.4 2.6 3.1
v 1.4 2.7 3.2
v 1.4 2.7 3.1
v 2.9 2.6 3.2
v 2.9 2.6 3.1
v 2.9 2.7 3.2
v 2.9 2.7 3.1
v 3.1 0 3.1
v 3.1 0 2.9
v 3.1 0 0.9
v 3.1 0 -3.1
v 3.1 0.3 0.2
v 3.1 0.3 0
v 3.1 0.4 0.2
v 3.1 0.4 0
v 3.1 0.5 -0.2
v 3.1 0.5 -1.4
v 3.1 0.5 -1.7
v 3.1 0.5 -2.9
v 3.1 0.6 -0.2
v 3.1 0.6 -0.3
v 3.1 0.6 -0.8
v 3.1 0.6 -0.9
v 3.1 0.6 -1.3
v 3.1 0.6 -1.4
v 3.1 0.6 -1.7
v 3.1 0.6 -1.8
v 3.1 0.6 -2.3
v 3.1 0.6 -2.4
v 3.1 0.6 -2.8
v 3.1 0.6 -2.9
v 3.1 1.6 -0.3
v 3.1 1.6 -0.8
v 3.1 1.6 -0.9
v 3.1 1.6 -1.3
v 3.1 1.6 -1.8
v 3.1 1.6 -2.3
v 3.1 1.6 -2.4
v 3.1 1.6 -2.8
v 3.1 1.9 -1.3
v 3.1 1.9 -1.4
v 3.1 2 2.9
v 3.1 2 0.9
v 3.1 2 -1.2
v 3.1 2 -1.3
v 3.1 2.1 -1.2
v 3.1 2.1 -1.3
v 3.1 2.1 -1.4
v 3.1 2.1 -1.6
v 3.1 2.2 3.1
v 3.1 2.2 3
v 3.1 2.2 -1.3
v 3.1 2.2 -1.6
v 3.1 2.5 3.1
v 3.1 2.5 3
v 3.1 2.6 2.9
v 3.1 2.6 1.7
v 3.1 2.6 1.4
v 3.1 2.6 0.2
v 3.1 2.6 -0.2
v 3.1 2.6 -1.4
v 3.1 2.6 -1.7
v 3.1 2.6 -2.9
v 3.1 2.7 2.9
v 3.1 2.7 2.8
v 3.1 2.7 2.4
v 3.1 2.7 2.3
v 3.1 2.7 1.8
v 3.1 2.7 1.7
v 3.1 2.7 1.4
v 3.1 2.7 1.3
v 3.1 2.7 0.9
v 3.1 2.7 0.8
v 3.1 2.7 0.3
v 3.1 2.7 0.2
v 3.1 2.7 -0.2
v 3.1 2.7 -0.3
v 3.1 2.7 -0.8
v 3.1 2.7 -0.9
v 3.1 2.7 -1.3
v 3.1 2.7 -1.4
v 3.1 2.7 -1.7
v 3.1 2.7 -1.8
v 3.1 2.7 -2.3
v 3.1 2.7 -2.4
v 3.1 2.7 -2.8
v 3.1 2.7 -2.9
v 3.1 3.7 2.8
v 3.1 3.7 2.4
v 3.1 3.7 2.3
v 3.1 3.7 1.8
v 3.1 3.7 1.3
v 3.1 3.7 0.9
v 3.1 3.7 0.8
v 3.1 3.7 0.3
v 3.1 3.7 -0.3
v 3.1 3.7 -0.8
v 3.1 3.7 -0.9
v 3.1 3.7 -1.3
v 3.1 3.7 -1.8
v 3.1 3.7 -2.3
v 3.1 3.7 -2.4
v 3.1 3.7 -2.8
v 3.1 3.9 3.1
v 3.1 3.9 -3.1
v 3.2 0.5 -0.2
v 3.2 0.5 -1.4
v 3.2 0.5 -1.7
v 3.2 0.5 -2.9
v 3.2 0.6 -0.2
v 3.2 0.6 -1.4
v 3.2 0.6 -1.7
v 3.2 0.6 -2.9
v 3.2 2.6 2.9
v 3.2 2.6 1.7
v 3.2 2.6 1.4
v 3.2 2.6 0.2
v 3.2 2.6 -0.2
v 3.2 2.6 -1.4
v 3.2 2.6 -1.7
v 3.2 2.6 -2.9
v 3.2 2.7 2.9
v 3.2 2.7 1.7
v 3.2 2.7 1.4
v 3.2 2.7 0.2
v 3.2 2.7 -0.2
v 3.2 2.7 -1.4
v 3.2 2.7 -1.7
v 3.2 2.7 -2.9
v 3.2 3.9 3.2
v 3.2 3.9 -3.2
v 3.2 4 3.2
v 3.2 4 -3.2
v -3.2 3.9 3.2
v -3.2 4 3.2
v -2.9 0.5 3.2
v -2.9 0.6 3.2
v -2.9 2.6 3.2
v -2.9 2.7 3.2
v -1.7 0.5 3.2
v -1.7 0.6 3.2
v -1.7 2.6 3.2
v -1.7 2.7 3.2
v -1.4 0.5 3.2
v -1.4 0.6 3.2
v -1.4 2.6 3.2
v -1.4 2.7 3.2
v -0.2 0.5 3.2
v -0.2 0.6 3.2
v -0.2 2.6 3.2
v -0.2 2.7 3.2
v 0.2 2.6 3.2
v 0.2 2.7 3.2
v 1.4 2.6 3.2
v 1.4 2.7 3.2
v 1.7 2.6 3.2
v 1.7 2.7 3.2
v 2.9 2.6 3.2
v 2.9 2.7 3.2
v 3.2 3.9 3.2
v 3.2 4 3.2
v -3.1 0 3.1
v -3.1 3.9 3.1
v -2.9 0.5 3.1
v -2.9 0.6 3.1
v -2.9 2.6 3.1
v -2.9 2.7 3.1
v -2.8 0.6 3.1
v -2.8 1.6 3.1
v -2.8 2.7 3.1
v -2.8 3.7 3.1
v -2.4 0.6 3.1
v -2.4 1.6 3.1
v -2.4 2.7 3.1
v -2.4 3.7 3.1
v -2.3 0.6 3.1
v -2.3 1.6 3.1
v -2.3 2.7 3.1
v -2.3 3.7 3.1
v -1.8 0.6 3.1
v -1.8 1.6 3.1
v -1.8 2.7 3.1
v -1.8 3.7 3.1
v -1.7 0.5 3.1
v -1.7 0.6 3.1
v -1.7 2.6 3.1
v -1.7 2.7 3.1
v -1.4 0.5 3.1
v -1.4 0.6 3.1
v -1.4 2.6 3.1
v -1.4 2.7 3.1
v -1.3 0.6 3.1
v -1.3 1.6 3.1
v -1.3 2.7 3.1
v -1.3 3.7 3.1
v -0.9 0.6 3.1
v -0.9 1.6 3.1
v -0.9 2.7 3.1
v -0.9 3.7 3.1
v -0.8 0.6 3.1
v -0.8 1.6 3.1
v -0.8 2.7 3.1
v -0.8 3.7 3.1
v -0.5 2 3.1
v -0.5 2.1 3.1
v -0.4 2.1 3.1
v -0.4 2.2 3.1
v -0.3 0.6 3.1
v -0.3 1.6 3.1
v -0.3 2 3.1
v -0.3 2.1 3.1
v -0.3 2.7 3.1
v -0.3 3.7 3.1
v -0.2 0.5 3.1
v -0.2 0.6 3.1
v -0.2 2.1 3.1
v -0.2 2.2 3.1
v -0.2 2.6 3.1
v -0.2 2.7 3.1
v 0.2 2.6 3.1
v 0.2 2.7 3.1
v 0.3 2.7 3.1
v 0.3 3.7 3.1
v 0.8 0.5 3.1
v 0.8 0.8 3.1
v 0.8 2.7 3.1
v 0.8 3.7 3.1
v 0.9 0 3.1
v 0.9 0.5 3.1
v 0.9 0.8 3.1
v 0.9 2 3.1
v 0.9 2.7 3.1
v 0.9 3.7 3.1
v 1.3 2.7 3.1
v 1.3 3.7 3.1
v 1.4 2.6 3.1
v 1.4 2.7 3.1
v 1.7 2.6 3.1
v 1.7 2.7 3.1
v 1.8 2.7 3.1
v 1.8 3.7 3.1
v 2.3 2.7 3.1
v 2.3 3.7 3.1
v 2.4 2.7 3.1
v 2.4 3.7 3.1
v 2.8 2.7 3.1
v 2.8 3.7 3.1
v 2.9 0 3.1
v 2.9 2 3.1
v 2.9 2.3 3.1
v 2.9 2.4 3.1
v 2.9 2.6 3.1
v 2.9 2.7 3.1
v 3 2.2 3.1
v 3 2.3 3.1
v 3 2.4 3.1
v 3 2.5 3.1
v 3.1 0 3.1
v 3.1 2.2 3.1
v 3.1 2.5 3.1
v 3.1 3.9 3.1
v 3.1 2.6 2.9
v 3.1 2.7 2.9
v 3.2 2.6 2.9
v 3.2 2.7 2.9
v 3.1 2.6 1.4
v 3.1 2.7 1.4
v 3.2 2.6 1.4
v 3.2 2.7 1.4
v 0.9 0 0.9
v 0.9 2 0.9
v 1.5 0 0.9
v 1.5 1.5 0.9
v 2 1.5 0.9
v 2 2 0.9
v 2.5 0 0.9
v 2.5 1.5 0.9
v 3.1 0 0.9
v 3.1 2 0.9
v 3.1 0.5 -0.2
v 3.1 0.6 -0.2
v 3.1 2.6 -0.2
v 3.1 2.7 -0.2
v 3.2 0.5 -0.2
v 3.2 0.6 -0.2
v 3.2 2.6 -0.2
v 3.2 2.7 -0.2
v 3.1 0.5 -1.7
v 3.1 0.6 -1.7
v 3.1 2.6 -1.7
v 3.1 2.7 -1.7
v 3.2 0.5 -1.7
v 3.2 0.6 -1.7
v 3.2 2.6 -1.7
v 3.2 2.7 -1.7
v 2.9 0 2.9
v 2.9 2 2.9
v 3.1 0 2.9
v 3.1 2 2.9
v 3.1 2.6 1.7
v 3.1 2.7 1.7
v 3.2 2.6 1.7
v 3.2 2.7 1.7
v 3.1 2.6 0.2
v 3.1 2.7 0.2
v 3.2 2.6 0.2
v 3.2 2.7 0.2
v 3.1 0.5 -1.4
v 3.1 0.6 -1.4
v 3.1 2.6 -1.4
v 3.1 2.7 -1.4
v 3.2 0.5 -1.4
v 3.2 0.6 -1.4
v 3.2 2.6 -1.4
v 3.2 2.7 -1.4
v 3.1 0.5 -2.9
v 3.1 0.6 -2.9
v 3.1 2.6 -2.9
v 3.1 2.7 -2.9
v 3.2 0.5 -2.9
v 3.2 0.6 -2.9
v 3.2 2.6 -2.9
v 3.2 2.7 -2.9
v -3.1 0 -3.1
v -3.1 3.9 -3.1
v 3.1 0 -3.1
v 3.1 3.9 -3.1
v -3.2 3.9 -3.2
v -3.2 4 -3.2
v 3.2 3.9 -3.2
v 3.2 4 -3.2
v -3.1 0 3.1
v 0.9 0 3.1
v 2.9 0 3.1
v 3.1 0 3.1
v 2.9 0 2.9
v 3.1 0 2.9
v -2 0 2
v 0.9 0 2
v 0.9 0 0.9
v 1.5 0 0.9
v 2.5 0 0.9
v 3.1 0 0.9
v 1.5 0 0.8
v 2 0 0.8
v 2.5 0 0.8
v -2 0 -2
v 2 0 -2
v -3.1 0 -3.1
v 3.1 0 -3.1
v -2.9 0.5 3.2
v -1.7 0.5 3.2
v -1.4 0.5 3.2
v -0.2 0.5 3.2
v -2.9 0.5 3.1
v -1.7 0.5 3.1
v -1.4 0.5 3.1
v -0.2 0.5 3.1
v 3.1 0.5 -0.2
v 3.2 0.5 -0.2
v 3.1 0.5 -1.4
v 3.2 0.5 -1.4
v 3.1 0.5 -1.7
v 3.2 0.5 -1.7
v 3.1 0.5 -2.9
v 3.2 0.5 -2.9
v 0.9 2 3.1
v 2.9 2 3.1
v 2.9 2 2.9
v 3.1 2 2.9
v 0.9 2 2
v 2 2 2
v 0.9 2 0.9
v 2 2 0.9
v 3.1 2 0.9
v -2.9 2.6 3.2
v -1.7 2.6 3.2
v -1.4 2.6 3.2
v -0.2 2.6 3.2
v 0.2 2.6 3.2
v 1.4 2.6 3.2
v 1.7 2.6 3.2
v 2.9 2.6 3.2
v -2.9 2.6 3.1
v -1.7 2.6 3.1
v -1.4 2.6 3.1
v -0.2 2.6 3.1
v 0.2 2.6 3.1
v 1.4 2.6 3.1
v 1.7 2.6 3.1
v 2.9 2.6 3.1
v 3.1 2.6 2.9
v 3.2 2.6 2.9
v 3.1 2.6 1.7
v 3.2 2.6 1.7
v 3.1 2.6 1.4
v 3.2 2.6 1.4
v 3.1 2.6 0.2
v 3.2 2.6 0.2
v 3.1 2.6 -0.2
v 3.2 2.6 -0.2
v 3.1 2.6 -1.4
v 3.2 2.6 -1.4
v 3.1 2.6 -1.7
v 3.2 2.6 -1.7
v 3.1 2.6 -2.9
v 3.2 2.6 -2.9
v -3.2 3.9 3.2
v 3.2 3.9 3.2
v -3.1 3.9 3.1
v 3.1 3.9 3.1
v -3.1 3.9 -3.1
v 3.1 3.9 -3.1
v -3.2 3.9 -3.2
v 3.2 3.9 -3.2
v -2.9 0.6 3.2
v -1.7 0.6 3.2
v -1.4 0.6 3.2
v -0.2 0.6 3.2
v -2.9 0.6 3.1
v -2.8 0.6 3.1
v -2.4 0.6 3.1
v -2.3 0.6 3.1
v -1.8 0.6 3.1
v -1.7 0.6 3.1
v -1.4 0.6 3.1
v -1.3 0.6 3.1
v -0.9 0.6 3.1
v -0.8 0.6 3.1
v -0.3 0.6 3.1
v -0.2 0.6 3.1
v 3.1 0.6 -0.2
v 3.2 0.6 -0.2
v 3.1 0.6 -0.3
v 3.1 0.6 -0.8
v 3.1 0.6 -0.9
v 3.1 0.6 -1.3
v 3.1 0.6 -1.4
v 3.2 0.6 -1.4
v 3.1 0.6 -1.7
v 3.2 0.6 -1.7
v 3.1 0.6 -1.8
v 3.1 0.6 -2.3
v 3.1 0.6 -2.4
v 3.1 0.6 -2.8
v 3.1 0.6 -2.9
v 3.2 0.6 -2.9
v -2.9 2.7 3.2
v -1.7 2.7 3.2
v -1.4 2.7 3.2
v -0.2 2.7 3.2
v 0.2 2.7 3.2
v 1.4 2.7 3.2
v 1.7 2.7 3.2
v 2.9 2.7 3.2
v -2.9 2.7 3.1
v -2.8 2.7 3.1
v -2.4 2.7 3.1
v -2.3 2.7 3.1
v -1.8 2.7 3.1
v -1.7 2.7 3.1
v -1.4 2.7 3.1
v -1.3 2.7 3.1
v -0.9 2.7 3.1
v -0.8 2.7 3.1
v -0.3 2.7 3.1
v -0.2 2.7 3.1
v 0.2 2.7 3.1
v 0.3 2.7 3.1
v 0.8 2.7 3.1
v 0.9 2.7 3.1
v 1.3 2.7 3.1
v 1.4 2.7 3.1
v 1.7 2.7 3.1
v 1.8 2.7 3.1
v 2.3 2.7 3.1
v 2.4 2.7 3.1
v 2.8 2.7 3.1
v 2.9 2.7 3.1
v 3.1 2.7 2.9
v 3.2 2.7 2.9
v 3.1 2.7 2.8
v 3.1 2.7 2.4
v 3.1 2.7 2.3
v 3.1 2.7 1.8
v 3.1 2.7 1.7
v 3.2 2.7 1.7
v 3.1 2.7 1.4
v 3.2 2.7 1.4
v 3.1 2.7 1.3
v 3.1 2.7 0.9
v 3.1 2.7 0.8
v 3.1 2.7 0.3
v 3.1 2.7 0.2
v 3.2 2.7 0.2
v 3.1 2.7 -0.2
v 3.2 2.7 -0.2
v 3.1 2.7 -0.3
v 3.1 2.7 -0.8
v 3.1 2.7 -0.9
v 3.1 2.7 -1.3
v 3.1 2.7 -1.4
v 3.2 2.7 -1.4
v 3.1 2.7 -1.7
v 3.2 2.7 -1.7
v 3.1 2.7 -1.8
v 3.1 2.7 -2.3
v 3.1 2.7 -2.4
v 3.1 2.7 -2.8
v 3.1 2.7 -2.9
v 3.2 2.7 -2.9
v -3.2 4 3.2
v 3.2 4 3.2
v -3.2 4 -3.2
v 3.2 4 -3.2

# faces
f 3/5/1 2/5/1 1/5/1
f 4/5/1 2/5/1 3/5/1
f 7/3/1 6/3/1 5/3/1
f 8/3/1 6/3/1 7/3/1
f 11/3/1 10/3/1 9/3/1
f 12/3/1 10/3/1 11/3/1
f 15/3/1 14/3/1 13/3/1
f 16/3/1 14/3/1 15/3/1
f 19/3/1 18/3/1 17/3/1
f 20/3/1 18/3/1 19/3/1
f 23/3/1 22/3/1 21/3/1
f 24/3/1 22/3/1 23/3/1
f 27/3/1 26/3/1 25/3/1
f 28/3/1 26/3/1 27/3/1
f 31/3/1 30/3/1 29/3/1
f 32/3/1 30/3/1 31/3/1
f 35/3/1 34/3/1 33/3/1
f 36/3/1 34/3/1 35/3/1
f 37/3/2 38/3/2 39/3/2
f 39/3/2 38/3/2 40/3/2
f 41/3/2 42/3/2 43/3/2
f 43/3/2 42/3/2 44/3/2
f 45/3/2 46/3/2 47/3/2
f 47/3/2 46/3/2 48/3/2
f 49/3/2 50/3/2 51/3/2
f 51/3/2 50/3/2 52/3/2
f 53/3/2 54/3/2 56/3/2
f 56/3/2 54/3/2 57/3/2
f 56/4/2 57/4/2 58/4/2
f 57/3/2 54/3/2 58/3/2
f 58/3/2 54/3/2 59/3/2
f 56/4/2 58/4/2 60/4/2
f 58/4/2 59/4/2 60/4/2
f 59/3/2 54/3/2 61/3/2
f 60/4/2 59/4/2 61/4/2
f 56/4/2 60/4/2 62/4/2
f 60/3/2 61/3/2 63/3/2
f 62/4/2 60/4/2 63/4/2
f 62/3/2 63/3/2 64/3/2
f 54/1/2 55/1/2 65/1/2
f 64/3/2 63/3/2 65/3/2
f 61/3/2 54/3/2 65/3/2
f 63/3/2 61/3/2 65/3/2
f 65/1/2 55/1/2 66/1/2
f 67/3/2 68/3/2 69/3/2
f 69/3/2 68/3/2 70/3/2
f 71/3/2 72/3/2 73/3/2
f 73/3/2 72/3/2 74/3/2
f 77/3/2 78/3/2 79/3/2
f 79/3/2 78/3/2 80/3/2
f 77/3/2 79/3/2 81/3/2
f 79/4/2 80/4/2 81/4/2
f 80/3/2 78/3/2 82/3/2
f 81/4/2 80/4/2 82/4/2
f 81/3/2 82/3/2 83/3/2
f 82/3/2 78/3/2 83/3/2
f 83/3/2 78/3/2 84/3/2
f 84/3/2 78/3/2 85/3/2
f 85/3/2 78/3/2 86/3/2
f 81/3/2 83/3/2 87/3/2
f 84/3/2 85/3/2 92/3/2
f 92/3/2 85/3/2 93/3/2
f 86/3/2 78/3/2 98/3/2
f 87/3/2 88/3/2 99/3/2
f 88/2/2 89/2/2 99/2/2
f 89/3/2 90/3/2 100/3/2
f 99/2/2 89/2/2 100/2/2
f 90/2/2 91/2/2 101/2/2
f 100/3/2 90/3/2 101/3/2
f 91/3/2 92/3/2 102/3/2
f 101/2/2 91/2/2 102/2/2
f 92/3/2 93/3/2 102/3/2
f 93/3/2 94/3/2 102/3/2
f 94/2/2 95/2/2 103/2/2
f 102/3/2 94/3/2 103/3/2
f 95/3/2 96/3/2 104/3/2
f 103/2/2 95/2/2 104/2/2
f 96/2/2 97/2/2 105/2/2
f 104/3/2 96/3/2 105/3/2
f 97/3/2 98/3/2 106/3/2
f 105/2/2 97/2/2 106/2/2
f 103/3/2 104/3/2 107/3/2
f 99/3/2 100/3/2 107/3/2
f 105/3/2 106/3/2 107/3/2
f 101/3/2 102/3/2 107/3/2
f 102/3/2 103/3/2 107/3/2
f 104/3/2 105/3/2 107/3/2
f 100/3/2 101/3/2 107/3/2
f 107/3/2 106/3/2 108/3/2
f 75/3/2 76/3/2 109/3/2
f 77/3/2 81/3/2 110/3/2
f 81/3/2 87/3/2 110/3/2
f 87/3/2 99/3/2 110/3/2
f 99/3/2 107/3/2 110/3/2
f 110/3/2 107/3/2 111/3/2
f 107/4/2 108/4/2 112/4/2
f 111/3/2 107/3/2 112/3/2
f 110/3/2 111/3/2 113/3/2
f 109/3/2 110/3/2 113/3/2
f 111/4/2 112/4/2 113/4/2
f 112/4/2 108/4/2 114/4/2
f 113/4/2 112/4/2 114/4/2
f 108/3/2 106/3/2 115/3/2
f 114/4/2 108/4/2 115/4/2
f 115/3/2 106/3/2 116/3/2
f 113/3/2 114/3/2 117/3/2
f 75/3/2 109/3/2 117/3/2
f 109/3/2 113/3/2 117/3/2
f 117/3/2 114/3/2 118/3/2
f 115/4/2 116/4/2 119/4/2
f 118/3/2 114/3/2 119/3/2
f 114/4/2 115/4/2 119/4/2
f 116/3/2 106/3/2 120/3/2
f 119/4/2 116/4/2 120/4/2
f 117/4/2 118/4/2 121/4/2
f 118/3/2 119/3/2 122/3/2
f 121/4/2 118/4/2 122/4/2
f 119/3/2 120/3/2 122/3/2
f 121/3/2 122/3/2 123/3/2
f 122/3/2 120/3/2 123/3/2
f 123/3/2 120/3/2 124/3/2
f 124/3/2 120/3/2 125/3/2
f 125/3/2 120/3/2 126/3/2
f 126/3/2 120/3/2 127/3/2
f 127/3/2 120/3/2 128/3/2
f 120/3/2 106/3/2 129/3/2
f 128/3/2 120/3/2 129/3/2
f 106/3/2 98/3/2 130/3/2
f 129/3/2 106/3/2 130/3/2
f 98/3/2 78/3/2 130/3/2
f 121/3/2 123/3/2 131/3/2
f 124/3/2 125/3/2 136/3/2
f 136/3/2 125/3/2 137/3/2
f 126/3/2 127/3/2 142/3/2
f 142/3/2 127/3/2 143/3/2
f 128/3/2 129/3/2 148/3/2
f 148/3/2 129/3/2 149/3/2
f 130/3/2 78/3/2 154/3/2
f 131/3/2 132/3/2 155/3/2
f 132/2/2 133/2/2 155/2/2
f 133/3/2 134/3/2 156/3/2
f 155/2/2 133/2/2 156/2/2
f 134/2/2 135/2/2 157/2/2
f 156/3/2 134/3/2 157/3/2
f 135/3/2 136/3/2 158/3/2
f 157/2/2 135/2/2 158/2/2
f 136/3/2 137/3/2 158/3/2
f 137/3/2 138/3/2 158/3/2
f 138/2/2 139/2/2 159/2/2
f 158/3/2 138/3/2 159/3/2
f 139/3/2 140/3/2 160/3/2
f 159/2/2 139/2/2 160/2/2
f 140/2/2 141/2/2 161/2/2
f 160/3/2 140/3/2 161/3/2
f 141/3/2 142/3/2 162/3/2
f 161/2/2 141/2/2 162/2/2
f 142/3/2 143/3/2 162/3/2
f 143/3/2 144/3/2 162/3/2
f 144/2/2 145/2/2 163/2/2
f 162/3/2 144/3/2 163/3/2
f 145/3/2 146/3/2 164/3/2
f 163/2/2 145/2/2 164/2/2
f 146/2/2 147/2/2 165/2/2
f 164/3/2 146/3/2 165/3/2
f 149/3/2 150/3/2 166/3/2
f 165/2/2 147/2/2 166/2/2
f 147/3/2 148/3/2 166/3/2
f 148/3/2 149/3/2 166/3/2
f 150/2/2 151/2/2 167/2/2
f 166/3/2 150/3/2 167/3/2
f 151/3/2 152/3/2 168/3/2
f 167/2/2 151/2/2 168/2/2
f 152/2/2 153/2/2 169/2/2
f 168/3/2 152/3/2 169/3/2
f 153/3/2 154/3/2 170/3/2
f 169/2/2 153/2/2 170/2/2
f 167/3/2 168/3/2 171/3/2
f 163/3/2 164/3/2 171/3/2
f 169/3/2 170/3/2 171/3/2
f 159/3/2 160/3/2 171/3/2
f 162/3/2 163/3/2 171/3/2
f 161/3/2 162/3/2 171/3/2
f 164/3/2 165/3/2 171/3/2
f 165/3/2 166/3/2 171/3/2
f 160/3/2 161/3/2 171/3/2
f 155/3/2 156/3/2 171/3/2
f 158/3/2 159/3/2 171/3/2
f 157/3/2 158/3/2 171/3/2
f 166/3/2 167/3/2 171/3/2
f 121/3/2 131/3/2 171/3/2
f 156/3/2 157/3/2 171/3/2
f 168/3/2 169/3/2 171/3/2
f 131/3/2 155/3/2 171/3/2
f 170/3/2 154/3/2 172/3/2
f 171/3/2 170/3/2 172/3/2
f 154/3/2 78/3/2 172/3/2
f 173/3/2 174/3/2 177/3/2
f 177/3/2 174/3/2 178/3/2
f 175/3/2 176/3/2 179/3/2
f 179/3/2 176/3/2 180/3/2
f 181/3/2 182/3/2 189/3/2
f 189/3/2 182/3/2 190/3/2
f 183/3/2 184/3/2 191/3/2
f 191/3/2 184/3/2 192/3/2
f 185/3/2 186/3/2 193/3/2
f 193/3/2 186/3/2 194/3/2
f 187/3/2 188/3/2 195/3/2
f 195/3/2 188/3/2 196/3/2
f 197/5/2 198/5/2 199/5/2
f 199/5/2 198/5/2 200/5/2
f 207/3/3 204/3/3 203/3/3
f 208/3/3 204/3/3 207/3/3
f 209/3/3 206/3/3 205/3/3
f 210/3/3 206/3/3 209/3/3
f 215/3/3 212/3/3 211/3/3
f 216/3/3 212/3/3 215/3/3
f 217/3/3 214/3/3 213/3/3
f 218/3/3 214/3/3 217/3/3
f 221/3/3 220/3/3 219/3/3
f 222/3/3 220/3/3 221/3/3
f 225/3/3 224/3/3 223/3/3
f 226/3/3 224/3/3 225/3/3
f 227/5/3 202/5/3 201/5/3
f 228/5/3 202/5/3 227/5/3
f 231/3/3 230/3/3 229/3/3
f 232/3/3 230/3/3 231/3/3
f 233/3/3 230/3/3 232/3/3
f 234/3/3 230/3/3 233/3/3
f 235/3/3 233/3/3 232/3/3
f 236/3/3 233/3/3 235/3/3
f 237/3/3 230/3/3 234/3/3
f 238/3/3 230/3/3 237/3/3
f 239/2/3 236/2/3 235/2/3
f 240/3/3 233/3/3 236/3/3
f 240/2/3 236/2/3 239/2/3
f 241/2/3 238/2/3 237/2/3
f 242/3/3 230/3/3 238/3/3
f 242/2/3 238/2/3 241/2/3
f 243/3/3 240/3/3 239/3/3
f 244/3/3 233/3/3 240/3/3
f 244/3/3 240/3/3 243/3/3
f 245/3/3 242/3/3 241/3/3
f 246/3/3 230/3/3 242/3/3
f 246/3/3 242/3/3 245/3/3
f 247/2/3 244/2/3 243/2/3
f 248/3/3 233/3/3 244/3/3
f 248/2/3 244/2/3 247/2/3
f 249/2/3 246/2/3 245/2/3
f 250/3/3 230/3/3 246/3/3
f 250/2/3 246/2/3 249/2/3
f 251/3/3 231/3/3 229/3/3
f 252/3/3 248/3/3 247/3/3
f 253/3/3 233/3/3 248/3/3
f 253/3/3 248/3/3 252/3/3
f 254/3/3 250/3/3 249/3/3
f 255/3/3 252/3/3 251/3/3
f 255/3/3 254/3/3 253/3/3
f 255/3/3 251/3/3 229/3/3
f 255/3/3 253/3/3 252/3/3
f 256/3/3 254/3/3 255/3/3
f 257/3/3 254/3/3 256/3/3
f 258/3/3 250/3/3 254/3/3
f 258/3/3 254/3/3 257/3/3
f 259/3/3 257/3/3 256/3/3
f 260/3/3 257/3/3 259/3/3
f 261/3/3 250/3/3 258/3/3
f 262/3/3 230/3/3 250/3/3
f 262/3/3 250/3/3 261/3/3
f 263/2/3 260/2/3 259/2/3
f 264/3/3 257/3/3 260/3/3
f 264/2/3 260/2/3 263/2/3
f 265/2/3 262/2/3 261/2/3
f 266/3/3 230/3/3 262/3/3
f 266/2/3 262/2/3 265/2/3
f 267/3/3 264/3/3 263/3/3
f 268/3/3 257/3/3 264/3/3
f 268/3/3 264/3/3 267/3/3
f 269/3/3 266/3/3 265/3/3
f 270/3/3 230/3/3 266/3/3
f 270/3/3 266/3/3 269/3/3
f 271/3/3 257/3/3 268/3/3
f 272/3/3 257/3/3 271/3/3
f 273/4/3 272/4/3 271/4/3
f 273/3/3 257/3/3 272/3/3
f 274/3/3 257/3/3 273/3/3
f 275/2/3 268/2/3 267/2/3
f 276/3/3 271/3/3 268/3/3
f 276/2/3 268/2/3 275/2/3
f 277/4/3 273/4/3 271/4/3
f 277/3/3 271/3/3 276/3/3
f 277/4/3 274/4/3 273/4/3
f 278/4/3 274/4/3 277/4/3
f 279/2/3 270/2/3 269/2/3
f 280/3/3 230/3/3 270/3/3
f 280/2/3 270/2/3 279/2/3
f 281/3/3 255/3/3 229/3/3
f 282/3/3 276/3/3 275/3/3
f 282/3/3 277/3/3 276/3/3
f 282/3/3 278/3/3 277/3/3
f 283/4/3 274/4/3 278/4/3
f 283/3/3 278/3/3 282/3/3
f 284/3/3 257/3/3 274/3/3
f 284/4/3 274/4/3 283/4/3
f 285/3/3 257/3/3 284/3/3
f 286/3/3 280/3/3 279/3/3
f 287/3/3 283/3/3 282/3/3
f 287/3/3 286/3/3 285/3/3
f 287/3/3 282/3/3 281/3/3
f 287/3/3 285/3/3 284/3/3
f 287/3/3 284/3/3 283/3/3
f 288/3/3 280/3/3 286/3/3
f 288/3/3 286/3/3 287/3/3
f 289/3/3 280/3/3 288/3/3
f 290/3/3 230/3/3 280/3/3
f 290/3/3 280/3/3 289/3/3
f 291/3/3 287/3/3 281/3/3
f 291/3/3 281/3/3 229/3/3
f 292/3/3 287/3/3 291/3/3
f 293/2/3 290/2/3 289/2/3
f 294/3/3 230/3/3 290/3/3
f 294/2/3 290/2/3 293/2/3
f 295/3/3 291/3/3 229/3/3
f 296/4/3 292/4/3 291/4/3
f 296/3/3 291/3/3 295/3/3
f 297/3/3 287/3/3 292/3/3
f 297/4/3 292/4/3 296/4/3
f 298/3/3 287/3/3 297/3/3
f 299/3/3 294/3/3 293/3/3
f 300/3/3 230/3/3 294/3/3
f 300/3/3 294/3/3 299/3/3
f 301/2/3 300/2/3 299/2/3
f 302/3/3 230/3/3 300/3/3
f 302/2/3 300/2/3 301/2/3
f 303/3/3 287/3/3 298/3/3
f 304/3/3 302/3/3 301/3/3
f 305/3/3 303/3/3 298/3/3
f 305/3/3 304/3/3 303/3/3
f 306/3/3 302/3/3 304/3/3
f 306/3/3 304/3/3 305/3/3
f 307/3/3 302/3/3 306/3/3
f 308/3/3 230/3/3 302/3/3
f 308/3/3 302/3/3 307/3/3
f 309/2/3 308/2/3 307/2/3
f 310/3/3 230/3/3 308/3/3
f 310/2/3 308/2/3 309/2/3
f 311/3/3 310/3/3 309/3/3
f 312/3/3 230/3/3 310/3/3
f 312/3/3 310/3/3 311/3/3
f 313/2/3 312/2/3 311/2/3
f 314/3/3 230/3/3 312/3/3
f 314/2/3 312/2/3 313/2/3
f 316/3/3 305/3/3 298/3/3
f 317/3/3 305/3/3 316/3/3
f 318/3/3 305/3/3 317/3/3
f 319/3/3 305/3/3 318/3/3
f 320/3/3 314/3/3 313/3/3
f 321/3/3 316/3/3 315/3/3
f 321/3/3 317/3/3 316/3/3
f 322/4/3 318/4/3 317/4/3
f 322/3/3 317/3/3 321/3/3
f 323/3/3 319/3/3 318/3/3
f 323/4/3 318/4/3 322/4/3
f 323/3/3 320/3/3 319/3/3
f 324/3/3 320/3/3 323/3/3
f 325/3/3 321/3/3 315/3/3
f 326/4/3 322/4/3 321/4/3
f 326/3/3 321/3/3 325/3/3
f 326/4/3 323/4/3 322/4/3
f 326/4/3 324/4/3 323/4/3
f 327/3/3 320/3/3 324/3/3
f 327/4/3 324/4/3 326/4/3
f 328/3/3 230/3/3 314/3/3
f 328/3/3 320/3/3 327/3/3
f 328/3/3 314/3/3 320/3/3
f 331/3/3 330/3/3 329/3/3
f 332/3/3 330/3/3 331/3/3
f 335/3/3 334/3/3 333/3/3
f 336/3/3 334/3/3 335/3/3
f 339/1/3 338/1/3 337/1/3
f 340/1/3 338/1/3 339/1/3
f 341/5/3 340/5/3 339/5/3
f 341/1/3 338/1/3 340/1/3
f 342/1/3 338/1/3 341/1/3
f 343/5/3 341/5/3 339/5/3
f 344/3/3 342/3/3 341/3/3
f 344/5/3 341/5/3 343/5/3
f 345/3/3 344/3/3 343/3/3
f 346/3/3 342/3/3 344/3/3
f 346/3/3 344/3/3 345/3/3
f 351/3/3 348/3/3 347/3/3
f 352/3/3 348/3/3 351/3/3
f 353/3/3 350/3/3 349/3/3
f 354/3/3 350/3/3 353/3/3
f 359/3/3 356/3/3 355/3/3
f 360/3/3 356/3/3 359/3/3
f 361/3/3 358/3/3 357/3/3
f 362/3/3 358/3/3 361/3/3
f 363/3/4 364/3/4 365/3/4
f 365/3/4 364/3/4 366/3/4
f 367/3/4 368/3/4 369/3/4
f 369/3/4 368/3/4 370/3/4
f 371/3/4 372/3/4 373/3/4
f 373/3/4 372/3/4 374/3/4
f 375/3/4 376/3/4 379/3/4
f 379/3/4 376/3/4 380/3/4
f 377/3/4 378/3/4 381/3/4
f 381/3/4 378/3/4 382/3/4
f 383/3/4 384/3/4 387/3/4
f 387/3/4 384/3/4 388/3/4
f 385/3/4 386/3/4 389/3/4
f 389/3/4 386/3/4 390/3/4
f 391/3/4 392/3/4 393/3/4
f 393/3/4 392/3/4 394/3/4
f 395/5/4 396/5/4 397/5/4
f 397/5/4 396/5/4 398/5/4
f 403/3/5 402/3/5 401/3/5
f 404/3/5 402/3/5 403/3/5
f 405/3/5 400/3/5 399/3/5
f 406/3/5 400/3/5 405/3/5
f 407/1/5 406/1/5 405/1/5
f 411/1/5 408/1/5 407/1/5
f 411/5/5 409/5/5 408/5/5
f 412/5/5 409/5/5 411/5/5
f 413/3/5 410/3/5 409/3/5
f 413/5/5 409/5/5 412/5/5
f 414/3/5 405/3/5 399/3/5
f 414/1/5 407/1/5 405/1/5
f 414/1/5 412/1/5 411/1/5
f 414/1/5 411/1/5 407/1/5
f 415/3/5 413/3/5 412/3/5
f 415/1/5 412/1/5 414/1/5
f 416/3/5 414/3/5 399/3/5
f 416/3/5 415/3/5 414/3/5
f 417/3/5 410/3/5 413/3/5
f 417/3/5 415/3/5 416/3/5
f 417/3/5 413/3/5 415/3/5
f 422/3/5 419/3/5 418/3/5
f 423/3/5 419/3/5 422/3/5
f 424/3/5 421/3/5 420/3/5
f 425/3/5 421/3/5 424/3/5
f 428/3/5 427/3/5 426/3/5
f 429/3/5 427/3/5 428/3/5
f 432/3/5 431/3/5 430/3/5
f 433/3/5 431/3/5 432/3/5
f 436/3/5 435/3/5 434/3/5
f 438/3/5 436/3/5 434/3/5
f 438/3/5 437/3/5 436/3/5
f 439/3/5 437/3/5 438/3/5
f 440/1/5 439/1/5 438/1/5
f 441/3/5 437/3/5 439/3/5
f 441/1/5 439/1/5 440/1/5
f 442/3/5 437/3/5 441/3/5
f 451/3/5 444/3/5 443/3/5
f 452/3/5 444/3/5 451/3/5
f 453/3/5 446/3/5 445/3/5
f 454/3/5 446/3/5 453/3/5
f 455/3/5 448/3/5 447/3/5
f 456/3/5 448/3/5 455/3/5
f 457/3/5 450/3/5 449/3/5
f 458/3/5 450/3/5 457/3/5
f 461/3/5 460/3/5 459/3/5
f 462/3/5 460/3/5 461/3/5
f 465/3/5 464/3/5 463/3/5
f 466/3/5 464/3/5 465/3/5
f 469/3/5 468/3/5 467/3/5
f 470/3/5 468/3/5 469/3/5
f 473/3/5 472/3/5 471/3/5
f 474/3/5 472/3/5 473/3/5
f 477/5/5 476/5/5 475/5/5
f 478/5/5 476/5/5 477/5/5
f 479/5/5 477/5/5 475/5/5
f 480/5/5 476/5/5 478/5/5
f 481/5/5 479/5/5 475/5/5
f 481/5/5 480/5/5 479/5/5
f 482/5/5 476/5/5 480/5/5
f 482/5/5 480/5/5 481/5/5
f 483/3/6 484/3/6 487/3/6
f 487/3/6 484/3/6 488/3/6
f 488/3/6 484/3/6 489/3/6
f 489/3/6 484/3/6 490/3/6
f 490/3/6 484/3/6 491/3/6
f 491/3/6 484/3/6 492/3/6
f 485/3/6 486/3/6 493/3/6
f 493/3/6 486/3/6 494/3/6
f 494/3/6 486/3/6 495/3/6
f 495/3/6 486/3/6 496/3/6
f 496/3/6 486/3/6 497/3/6
f 497/3/6 486/3/6 498/3/6
f 499/3/6 500/3/6 501/3/6
f 501/3/6 500/3/6 502/3/6
f 502/3/6 500/3/6 503/3/6
f 503/3/6 500/3/6 504/3/6
f 504/3/6 500/3/6 505/3/6
f 505/3/6 500/3/6 506/3/6
f 507/3/6 508/3/6 509/3/6
f 509/3/6 508/3/6 510/3/6
f 510/3/6 508/3/6 511/3/6
f 511/3/6 508/3/6 512/3/6
f 512/3/6 508/3/6 513/3/6
f 513/3/6 508/3/6 514/3/6
f 515/3/6 516/3/6 523/3/6
f 523/3/6 516/3/6 524/3/6
f 524/3/6 516/3/6 525/3/6
f 525/3/6 516/3/6 526/3/6
f 526/3/6 516/3/6 527/3/6
f 527/3/6 516/3/6 528/3/6
f 517/3/6 518/3/6 529/3/6
f 529/3/6 518/3/6 530/3/6
f 530/3/6 518/3/6 531/3/6
f 531/3/6 518/3/6 532/3/6
f 532/3/6 518/3/6 533/3/6
f 533/3/6 518/3/6 534/3/6
f 519/3/6 520/3/6 535/3/6
f 535/3/6 520/3/6 536/3/6
f 536/3/6 520/3/6 537/3/6
f 537/3/6 520/3/6 538/3/6
f 538/3/6 520/3/6 539/3/6
f 539/3/6 520/3/6 540/3/6
f 521/3/6 522/3/6 541/3/6
f 541/3/6 522/3/6 542/3/6
f 542/3/6 522/3/6 543/3/6
f 543/3/6 522/3/6 544/3/6
f 544/3/6 522/3/6 545/3/6
f 545/3/6 522/3/6 546/3/6
f 547/3/6 548/3/6 549/3/6
f 549/3/6 548/3/6 550/3/6
f 550/3/6 548/3/6 551/3/6
f 551/3/6 548/3/6 552/3/6
f 552/3/6 548/3/6 553/3/6
f 553/3/6 548/3/6 554/3/6
f 555/3/6 556/3/6 557/3/6
f 557/3/6 556/3/6 558/3/6
f 558/3/6 556/3/6 559/3/6
f 559/3/6 556/3/6 560/3/6
f 560/3/6 556/3/6 561/3/6
f 561/3/6 556/3/6 562/3/6
f 563/3/6 564/3/6 565/3/6
f 565/3/6 564/3/6 566/3/6
f 566/3/6 564/3/6 567/3/6
f 567/3/6 564/3/6 568/3/6
f 568/3/6 564/3/6 569/3/6
f 569/3/6 564/3/6 570/3/6
f 571/3/6 572/3/6 573/3/6
f 573/3/6 572/3/6 574/3/6
f 574/3/6 572/3/6 575/3/6
f 575/3/6 572/3/6 576/3/6
f 576/3/6 572/3/6 577/3/6
f 577/3/6 572/3/6 578/3/6
f 579/5/6 580/5/6 581/5/6
f 581/5/6 580/5/6 582/5/6
