# MagicaVoxel @ Ephtracy

# group
o 

# material
mtllib monorail.mtl
usemtl palette

# normals
vn -1 0 0
vn 1 0 0
vn 0 0 1
vn 0 0 -1
vn 0 -1 0
vn 0 1 0

# texcoords
vt 0.939453 0.5
vt 0.951172 0.5
vt 0.955078 0.5

# verts
v -5 3.6 0.1
v -5 3.6 0
v -5 3.8 0.3
v -5 3.8 0.1
v -5 3.8 0
v -5 3.8 -0.2
v -5 4 0.3
v -5 4 -0.2
v -2.3 3.1 0.3
v -2.3 3.1 -0.2
v -2.3 3.6 0.3
v -2.3 3.6 0.2
v -2.3 3.6 0.1
v -2.3 3.6 0
v -2.3 3.6 -0.1
v -2.3 3.6 -0.2
v -2.3 3.8 0.2
v -2.3 3.8 0.1
v -2.3 3.8 0
v -2.3 3.8 -0.1
v -1.7 0 1.5
v -1.7 0 1
v -1.7 0 -1
v -1.7 0 -1.5
v -1.7 0.8 1.5
v -1.7 0.8 1.3
v -1.7 0.9 1.5
v -1.7 0.9 1.3
v -1.7 0.9 -1.1
v -1.7 0.9 -1.3
v -1.7 1 -1.1
v -1.7 1 -1.3
v -1.7 1.8 1.2
v -1.7 1.8 1.1
v -1.7 1.9 1.1
v -1.7 1.9 1
v -1.7 1.9 -1.2
v -1.7 1.9 -1.4
v -1.7 2 1.2
v -1.7 2 1
v -1.7 2 -1.2
v -1.7 2 -1.4
v -1.7 2.5 1
v -1.7 2.5 -1
v -1.7 3.1 1.5
v -1.7 3.1 0.3
v -1.7 3.1 -0.2
v -1.7 3.1 -1.5
v -0.2 3.6 0.2
v -0.2 3.6 0.1
v -0.2 3.8 0.2
v -0.2 3.8 0.1
v 0 3.6 0
v 0 3.6 -0.1
v 0 3.8 0
v 0 3.8 -0.1
v 0.8 0 1.5
v 0.8 0 1
v 0.8 0 -1
v 0.8 0 -1.5
v 0.8 1.4 1.2
v 0.8 1.4 1
v 0.8 1.5 1.2
v 0.8 1.5 1
v 0.8 2.5 1.5
v 0.8 2.5 1
v 0.8 2.5 -1
v 0.8 2.5 -1.5
v 0.8 3 1.5
v 0.8 3 1
v 0.8 3 -1
v 0.8 3 -1.5
v 0.8 3.1 1.5
v 0.8 3.1 0.3
v 0.8 3.1 -0.2
v 0.8 3.1 -1.5
v 2.1 3.6 0.2
v 2.1 3.6 0.1
v 2.1 3.6 0
v 2.1 3.6 -0.1
v 2.1 3.8 0.2
v 2.1 3.8 0.1
v 2.1 3.8 0
v 2.1 3.8 -0.1
v -2.2 3.6 0.2
v -2.2 3.6 0.1
v -2.2 3.6 0
v -2.2 3.6 -0.1
v -2.2 3.8 0.2
v -2.2 3.8 0.1
v -2.2 3.8 0
v -2.2 3.8 -0.1
v -1.2 0 1.5
v -1.2 0 1
v -1.2 0 -1
v -1.2 0 -1.5
v -1.2 1.4 -1.4
v -1.2 1.4 -1.5
v -1.2 1.5 -1.4
v -1.2 1.5 -1.5
v -1.2 2.5 1.5
v -1.2 2.5 1
v -1.2 2.5 -1
v -1.2 2.5 -1.5
v -1.2 3 1.5
v -1.2 3 1
v -1.2 3 -1
v -1.2 3 -1.5
v -1.2 3.1 1.5
v -1.2 3.1 0.3
v -1.2 3.1 -0.2
v -1.2 3.1 -1.5
v -0.0999999 3.6 0.2
v -0.0999999 3.6 0.1
v -0.0999999 3.8 0.2
v -0.0999999 3.8 0.1
v 0.1 3.6 0
v 0.1 3.6 -0.1
v 0.1 3.8 0
v 0.1 3.8 -0.1
v 1.3 0 1.5
v 1.3 0 1
v 1.3 0 -1
v 1.3 0 -1.5
v 1.3 1.2 -1.4
v 1.3 1.2 -1.5
v 1.3 1.3 1.1
v 1.3 1.3 1
v 1.3 1.4 1.5
v 1.3 1.4 1.4
v 1.3 1.4 1.1
v 1.3 1.4 1
v 1.3 1.6 -1.4
v 1.3 1.6 -1.5
v 1.3 1.8 1.5
v 1.3 1.8 1.4
v 1.3 2.5 1
v 1.3 2.5 -1
v 1.3 2.9 1.5
v 1.3 2.9 1.4
v 1.3 3 1.4
v 1.3 3 1.3
v 1.3 3.1 1.5
v 1.3 3.1 1.3
v 1.3 3.1 0.3
v 1.3 3.1 0.2
v 1.3 3.1 -0.2
v 1.3 3.1 -1.5
v 2.2 3.1 0.3
v 2.2 3.1 0.2
v 2.2 3.1 -0.2
v 2.2 3.3 0.3
v 2.2 3.3 0.2
v 2.2 3.6 0.3
v 2.2 3.6 0.2
v 2.2 3.6 0.1
v 2.2 3.6 0
v 2.2 3.6 -0.1
v 2.2 3.6 -0.2
v 2.2 3.8 0.2
v 2.2 3.8 0.1
v 2.2 3.8 0
v 2.2 3.8 -0.1
v 5 3.6 0.1
v 5 3.6 0
v 5 3.8 0.3
v 5 3.8 0.1
v 5 3.8 0
v 5 3.8 -0.2
v 5 4 0.3
v 5 4 -0.2
v -1.7 0 1.5
v -1.7 0.8 1.5
v -1.7 0.9 1.5
v -1.7 3.1 1.5
v -1.6 0.8 1.5
v -1.6 0.9 1.5
v -1.6 2.3 1.5
v -1.6 2.4 1.5
v -1.5 2.4 1.5
v -1.5 2.5 1.5
v -1.4 2.3 1.5
v -1.4 2.4 1.5
v -1.3 2.4 1.5
v -1.3 2.5 1.5
v -1.2 0 1.5
v -1.2 2.5 1.5
v -1.2 3 1.5
v -1.2 3.1 1.5
v 0.5 2.7 1.5
v 0.5 2.8 1.5
v 0.8 0 1.5
v 0.8 2.5 1.5
v 0.8 2.7 1.5
v 0.8 2.8 1.5
v 0.8 3 1.5
v 0.8 3.1 1.5
v 1.1 1.6 1.5
v 1.1 1.7 1.5
v 1.1 3 1.5
v 1.1 3.1 1.5
v 1.2 1.4 1.5
v 1.2 1.6 1.5
v 1.2 1.7 1.5
v 1.2 1.8 1.5
v 1.2 2.9 1.5
v 1.2 3 1.5
v 1.3 0 1.5
v 1.3 1.4 1.5
v 1.3 1.8 1.5
v 1.3 2.9 1.5
v 1.3 3.1 1.5
v -5 3.8 0.3
v -5 4 0.3
v -2.3 3.1 0.3
v -2.3 3.6 0.3
v -1.9 3.3 0.3
v -1.9 3.4 0.3
v -1.8 3.4 0.3
v -1.8 3.5 0.3
v -1.7 3.1 0.3
v -1.6 3.3 0.3
v -1.6 3.4 0.3
v -1.5 3.4 0.3
v -1.5 3.5 0.3
v -1.2 3.1 0.3
v 0.8 3.1 0.3
v 1.2 3.1 0.3
v 1.2 3.2 0.3
v 1.3 3.1 0.3
v 1.4 3.1 0.3
v 1.4 3.2 0.3
v 2 3.1 0.3
v 2 3.2 0.3
v 2.1 3.2 0.3
v 2.1 3.3 0.3
v 2.2 3.1 0.3
v 2.2 3.3 0.3
v 2.2 3.6 0.3
v 5 3.8 0.3
v 5 4 0.3
v -2.3 3.6 0.2
v -2.3 3.8 0.2
v -2.2 3.6 0.2
v -2.2 3.8 0.2
v -0.2 3.6 0.2
v -0.2 3.8 0.2
v -0.0999999 3.6 0.2
v -0.0999999 3.8 0.2
v 2.1 3.6 0.2
v 2.1 3.8 0.2
v 2.2 3.6 0.2
v 2.2 3.8 0.2
v -5 3.6 0.1
v -5 3.8 0.1
v -2.3 3.6 0.1
v -2.3 3.8 0.1
v -2.2 3.6 0.1
v -2.2 3.8 0.1
v -0.2 3.6 0.1
v -0.2 3.8 0.1
v -0.0999999 3.6 0.1
v -0.0999999 3.8 0.1
v 2.1 3.6 0.1
v 2.1 3.8 0.1
v 2.2 3.6 0.1
v 2.2 3.8 0.1
v 5 3.6 0.1
v 5 3.8 0.1
v -1.7 0 -1
v -1.7 2.5 -1
v -1.2 0 -1
v -1.2 2.5 -1
v -1.2 3 -1
v 0.8 0 -1
v 0.8 2.5 -1
v 0.8 3 -1
v 1.3 0 -1
v 1.3 2.5 -1
v -1.7 0 1
v -1.7 1.9 1
v -1.7 2 1
v -1.7 2.5 1
v -1.6 1.9 1
v -1.6 2 1
v -1.2 0 1
v -1.2 2.5 1
v -1.2 3 1
v 0.8 0 1
v 0.8 1.4 1
v 0.8 1.5 1
v 0.8 2.5 1
v 0.8 3 1
v 1.1 1.3 1
v 1.1 1.4 1
v 1.1 1.5 1
v 1.3 0 1
v 1.3 1.3 1
v 1.3 1.4 1
v 1.3 2.5 1
v -5 3.6 0
v -5 3.8 0
v -2.3 3.6 0
v -2.3 3.8 0
v -2.2 3.6 0
v -2.2 3.8 0
v 0 3.6 0
v 0 3.8 0
v 0.1 3.6 0
v 0.1 3.8 0
v 2.1 3.6 0
v 2.1 3.8 0
v 2.2 3.6 0
v 2.2 3.8 0
v 5 3.6 0
v 5 3.8 0
v -2.3 3.6 -0.1
v -2.3 3.8 -0.1
v -2.2 3.6 -0.1
v -2.2 3.8 -0.1
v 0 3.6 -0.1
v 0 3.8 -0.1
v 0.1 3.6 -0.1
v 0.1 3.8 -0.1
v 2.1 3.6 -0.1
v 2.1 3.8 -0.1
v 2.2 3.6 -0.1
v 2.2 3.8 -0.1
v -5 3.8 -0.2
v -5 4 -0.2
v -2.3 3.1 -0.2
v -2.3 3.6 -0.2
v -1.7 3.1 -0.2
v -1.2 3.1 -0.2
v 0.8 3.1 -0.2
v 1.3 3.1 -0.2
v 1.4 3.3 -0.2
v 1.4 3.5 -0.2
v 1.5 3.2 -0.2
v 1.5 3.3 -0.2
v 1.6 3.2 -0.2
v 1.6 3.4 -0.2
v 1.7 3.4 -0.2
v 1.7 3.5 -0.2
v 2.2 3.1 -0.2
v 2.2 3.6 -0.2
v 5 3.8 -0.2
v 5 4 -0.2
v -1.7 0 -1.5
v -1.7 3.1 -1.5
v -1.6 2.7 -1.5
v -1.6 2.8 -1.5
v -1.4 1.4 -1.5
v -1.4 1.5 -1.5
v -1.4 2.7 -1.5
v -1.4 2.8 -1.5
v -1.2 0 -1.5
v -1.2 1.4 -1.5
v -1.2 1.5 -1.5
v -1.2 2.5 -1.5
v -1.2 3 -1.5
v -1.2 3.1 -1.5
v 0.6 2.8 -1.5
v 0.6 2.9 -1.5
v 0.7 2.7 -1.5
v 0.7 2.8 -1.5
v 0.8 0 -1.5
v 0.8 2.5 -1.5
v 0.8 2.8 -1.5
v 0.8 2.9 -1.5
v 0.8 3 -1.5
v 0.8 3.1 -1.5
v 0.9 2.7 -1.5
v 0.9 2.8 -1.5
v 1 1.5 -1.5
v 1 1.6 -1.5
v 1.1 1.4 -1.5
v 1.1 1.5 -1.5
v 1.1 1.6 -1.5
v 1.2 1.2 -1.5
v 1.2 1.4 -1.5
v 1.2 1.5 -1.5
v 1.2 1.6 -1.5
v 1.3 0 -1.5
v 1.3 1.2 -1.5
v 1.3 1.6 -1.5
v 1.3 3.1 -1.5
v -1.7 0 1.5
v -1.2 0 1.5
v 0.8 0 1.5
v 1.3 0 1.5
v -1.7 0 1
v -1.2 0 1
v 0.8 0 1
v 1.3 0 1
v -1.7 0 -1
v -1.2 0 -1
v 0.8 0 -1
v 1.3 0 -1
v -1.7 0 -1.5
v -1.2 0 -1.5
v 0.8 0 -1.5
v 1.3 0 -1.5
v -1.2 2.5 1.5
v 0.8 2.5 1.5
v -1.7 2.5 1
v -1.2 2.5 1
v 0.8 2.5 1
v 1.3 2.5 1
v -1.7 2.5 -1
v -1.2 2.5 -1
v 0.8 2.5 -1
v 1.3 2.5 -1
v -1.2 2.5 -1.5
v 0.8 2.5 -1.5
v -2.3 3.1 0.3
v -1.7 3.1 0.3
v -1.2 3.1 0.3
v 0.8 3.1 0.3
v 1.3 3.1 0.3
v 1.4 3.1 0.3
v 2 3.1 0.3
v 2.2 3.1 0.3
v 1.3 3.1 0.2
v 1.4 3.1 0.2
v 2 3.1 0.2
v 2.2 3.1 0.2
v -2.3 3.1 -0.2
v -1.7 3.1 -0.2
v -1.2 3.1 -0.2
v 0.8 3.1 -0.2
v 1.3 3.1 -0.2
v 2.2 3.1 -0.2
v -5 3.6 0.1
v -2.3 3.6 0.1
v 2.2 3.6 0.1
v 5 3.6 0.1
v -5 3.6 0
v -2.3 3.6 0
v 2.2 3.6 0
v 5 3.6 0
v -5 3.8 0.3
v 5 3.8 0.3
v -2.3 3.8 0.2
v -2.2 3.8 0.2
v -0.2 3.8 0.2
v -0.0999999 3.8 0.2
v 2.1 3.8 0.2
v 2.2 3.8 0.2
v -5 3.8 0.1
v -2.3 3.8 0.1
v -2.2 3.8 0.1
v -0.2 3.8 0.1
v -0.0999999 3.8 0.1
v 2.1 3.8 0.1
v 2.2 3.8 0.1
v 5 3.8 0.1
v -5 3.8 0
v -2.3 3.8 0
v -2.2 3.8 0
v 0 3.8 0
v 0.1 3.8 0
v 2.1 3.8 0
v 2.2 3.8 0
v 5 3.8 0
v -2.3 3.8 -0.1
v -2.2 3.8 -0.1
v 0 3.8 -0.1
v 0.1 3.8 -0.1
v 2.1 3.8 -0.1
v 2.2 3.8 -0.1
v -5 3.8 -0.2
v 5 3.8 -0.2
v -1.2 3 1.5
v 0.8 3 1.5
v -1.2 3 1
v 0.8 3 1
v -1.2 3 -1
v 0.8 3 -1
v -1.2 3 -1.5
v 0.8 3 -1.5
v -1.7 3.1 1.5
v -1.2 3.1 1.5
v 0.8 3.1 1.5
v 1.1 3.1 1.5
v 1.3 3.1 1.5
v 1.1 3.1 1.4
v 1.2 3.1 1.4
v 1.2 3.1 1.3
v 1.3 3.1 1.3
v -1.7 3.1 0.3
v -1.2 3.1 0.3
v 0.8 3.1 0.3
v 1.2 3.1 0.3
v 1.3 3.1 0.3
v -1.7 3.1 -0.2
v -1.2 3.1 -0.2
v 0.8 3.1 -0.2
v 1.3 3.1 -0.2
v -1.7 3.1 -1.5
v -1.2 3.1 -1.5
v 0.8 3.1 -1.5
v 1.3 3.1 -1.5
v -2.3 3.6 0.3
v 2.2 3.6 0.3
v -2.3 3.6 0.2
v -2.2 3.6 0.2
v -0.2 3.6 0.2
v -0.0999999 3.6 0.2
v 2.1 3.6 0.2
v 2.2 3.6 0.2
v -2.2 3.6 0.1
v -0.2 3.6 0.1
v -0.0999999 3.6 0.1
v 2.1 3.6 0.1
v -2.2 3.6 0
v 0 3.6 0
v 0.1 3.6 0
v 2.1 3.6 0
v -2.3 3.6 -0.1
v -2.2 3.6 -0.1
v 0 3.6 -0.1
v 0.1 3.6 -0.1
v 2.1 3.6 -0.1
v 2.2 3.6 -0.1
v -2.3 3.6 -0.2
v 2.2 3.6 -0.2
v -5 4 0.3
v 5 4 0.3
v -5 4 -0.2
v 5 4 -0.2

# faces
f 4/1/1 2/1/1 1/1/1
f 5/1/1 2/1/1 4/1/1
f 7/2/1 4/2/1 3/2/1
f 7/2/1 6/2/1 5/2/1
f 7/2/1 5/2/1 4/2/1
f 8/2/1 6/2/1 7/2/1
f 11/2/1 10/2/1 9/2/1
f 12/2/1 10/2/1 11/2/1
f 13/2/1 10/2/1 12/2/1
f 14/2/1 10/2/1 13/2/1
f 15/2/1 10/2/1 14/2/1
f 16/2/1 10/2/1 15/2/1
f 17/2/1 13/2/1 12/2/1
f 18/2/1 13/2/1 17/2/1
f 19/2/1 15/2/1 14/2/1
f 20/2/1 15/2/1 19/2/1
f 25/2/1 22/2/1 21/2/1
f 26/2/1 22/2/1 25/2/1
f 27/3/1 26/3/1 25/3/1
f 28/2/1 22/2/1 26/2/1
f 28/3/1 26/3/1 27/3/1
f 29/2/1 24/2/1 23/2/1
f 30/2/1 24/2/1 29/2/1
f 31/2/1 29/2/1 23/2/1
f 31/3/1 30/3/1 29/3/1
f 32/2/1 24/2/1 30/2/1
f 32/3/1 30/3/1 31/3/1
f 33/2/1 22/2/1 28/2/1
f 33/2/1 28/2/1 27/2/1
f 34/2/1 22/2/1 33/2/1
f 35/3/1 34/3/1 33/3/1
f 35/2/1 22/2/1 34/2/1
f 36/2/1 22/2/1 35/2/1
f 37/2/1 32/2/1 31/2/1
f 38/2/1 24/2/1 32/2/1
f 38/2/1 32/2/1 37/2/1
f 39/3/1 36/3/1 35/3/1
f 39/2/1 33/2/1 27/2/1
f 39/3/1 35/3/1 33/3/1
f 40/3/1 36/3/1 39/3/1
f 41/2/1 37/2/1 31/2/1
f 41/3/1 38/3/1 37/3/1
f 42/2/1 24/2/1 38/2/1
f 42/3/1 38/3/1 41/3/1
f 43/2/1 40/2/1 39/2/1
f 44/2/1 41/2/1 31/2/1
f 44/2/1 31/2/1 23/2/1
f 44/2/1 42/2/1 41/2/1
f 45/2/1 43/2/1 39/2/1
f 45/2/1 44/2/1 43/2/1
f 45/2/1 39/2/1 27/2/1
f 46/2/1 44/2/1 45/2/1
f 47/2/1 44/2/1 46/2/1
f 48/2/1 24/2/1 42/2/1
f 48/2/1 44/2/1 47/2/1
f 48/2/1 42/2/1 44/2/1
f 51/2/1 50/2/1 49/2/1
f 52/2/1 50/2/1 51/2/1
f 55/2/1 54/2/1 53/2/1
f 56/2/1 54/2/1 55/2/1
f 61/2/1 58/2/1 57/2/1
f 62/2/1 58/2/1 61/2/1
f 63/2/1 61/2/1 57/2/1
f 63/3/1 62/3/1 61/3/1
f 64/3/1 62/3/1 63/3/1
f 65/2/1 63/2/1 57/2/1
f 65/2/1 64/2/1 63/2/1
f 66/2/1 64/2/1 65/2/1
f 67/2/1 60/2/1 59/2/1
f 68/2/1 60/2/1 67/2/1
f 70/2/1 67/2/1 66/2/1
f 71/2/1 67/2/1 70/2/1
f 73/2/1 70/2/1 69/2/1
f 73/2/1 72/2/1 71/2/1
f 73/2/1 71/2/1 70/2/1
f 74/2/1 72/2/1 73/2/1
f 75/2/1 72/2/1 74/2/1
f 76/2/1 72/2/1 75/2/1
f 81/2/1 78/2/1 77/2/1
f 82/2/1 78/2/1 81/2/1
f 83/2/1 80/2/1 79/2/1
f 84/2/1 80/2/1 83/2/1
f 85/2/2 86/2/2 89/2/2
f 89/2/2 86/2/2 90/2/2
f 87/2/2 88/2/2 91/2/2
f 91/2/2 88/2/2 92/2/2
f 95/2/2 96/2/2 97/2/2
f 97/2/2 96/2/2 98/2/2
f 95/2/2 97/2/2 99/2/2
f 97/3/2 98/3/2 99/3/2
f 99/3/2 98/3/2 100/3/2
f 93/2/2 94/2/2 101/2/2
f 101/2/2 94/2/2 102/2/2
f 95/2/2 99/2/2 103/2/2
f 99/2/2 100/2/2 103/2/2
f 103/2/2 100/2/2 104/2/2
f 102/2/2 103/2/2 106/2/2
f 106/2/2 103/2/2 107/2/2
f 105/2/2 106/2/2 109/2/2
f 107/2/2 108/2/2 109/2/2
f 106/2/2 107/2/2 109/2/2
f 109/2/2 108/2/2 110/2/2
f 110/2/2 108/2/2 111/2/2
f 111/2/2 108/2/2 112/2/2
f 113/2/2 114/2/2 115/2/2
f 115/2/2 114/2/2 116/2/2
f 117/2/2 118/2/2 119/2/2
f 119/2/2 118/2/2 120/2/2
f 123/2/2 124/2/2 125/2/2
f 125/2/2 124/2/2 126/2/2
f 121/2/2 122/2/2 127/2/2
f 127/2/2 122/2/2 128/2/2
f 121/2/2 127/2/2 129/2/2
f 129/2/2 127/2/2 130/2/2
f 127/3/2 128/3/2 131/3/2
f 130/2/2 127/2/2 131/2/2
f 131/3/2 128/3/2 132/3/2
f 123/2/2 125/2/2 133/2/2
f 125/3/2 126/3/2 133/3/2
f 133/3/2 126/3/2 134/3/2
f 129/3/2 130/3/2 135/3/2
f 131/2/2 132/2/2 136/2/2
f 135/3/2 130/3/2 136/3/2
f 130/2/2 131/2/2 136/2/2
f 135/2/2 136/2/2 137/2/2
f 136/2/2 132/2/2 137/2/2
f 133/2/2 134/2/2 138/2/2
f 123/2/2 133/2/2 138/2/2
f 135/2/2 137/2/2 139/2/2
f 137/2/2 138/2/2 139/2/2
f 139/2/2 138/2/2 140/2/2
f 139/3/2 140/3/2 141/3/2
f 140/2/2 138/2/2 141/2/2
f 141/2/2 138/2/2 142/2/2
f 139/3/2 141/3/2 143/3/2
f 141/3/2 142/3/2 143/3/2
f 142/2/2 138/2/2 144/2/2
f 143/3/2 142/3/2 144/3/2
f 144/2/2 138/2/2 145/2/2
f 145/2/2 138/2/2 146/2/2
f 146/2/2 138/2/2 147/2/2
f 138/2/2 134/2/2 148/2/2
f 147/2/2 138/2/2 148/2/2
f 149/3/2 150/3/2 152/3/2
f 150/2/2 151/2/2 153/2/2
f 152/3/2 150/3/2 153/3/2
f 152/2/2 153/2/2 154/2/2
f 153/2/2 151/2/2 155/2/2
f 154/2/2 153/2/2 155/2/2
f 155/2/2 151/2/2 156/2/2
f 156/2/2 151/2/2 157/2/2
f 157/2/2 151/2/2 158/2/2
f 158/2/2 151/2/2 159/2/2
f 155/2/2 156/2/2 160/2/2
f 160/2/2 156/2/2 161/2/2
f 157/2/2 158/2/2 162/2/2
f 162/2/2 158/2/2 163/2/2
f 164/1/2 165/1/2 167/1/2
f 167/1/2 165/1/2 168/1/2
f 166/2/2 167/2/2 170/2/2
f 168/2/2 169/2/2 170/2/2
f 167/2/2 168/2/2 170/2/2
f 170/2/2 169/2/2 171/2/2
f 176/2/3 173/2/3 172/2/3
f 176/3/3 174/3/3 173/3/3
f 177/2/3 175/2/3 174/2/3
f 177/3/3 174/3/3 176/3/3
f 178/2/3 175/2/3 177/2/3
f 179/2/3 175/2/3 178/2/3
f 180/3/3 179/3/3 178/3/3
f 180/2/3 175/2/3 179/2/3
f 181/2/3 175/2/3 180/2/3
f 182/2/3 177/2/3 176/2/3
f 182/2/3 178/2/3 177/2/3
f 182/3/3 181/3/3 180/3/3
f 182/3/3 180/3/3 178/3/3
f 183/3/3 181/3/3 182/3/3
f 184/2/3 183/2/3 182/2/3
f 184/3/3 181/3/3 183/3/3
f 185/2/3 175/2/3 181/2/3
f 185/3/3 181/3/3 184/3/3
f 186/2/3 176/2/3 172/2/3
f 186/2/3 184/2/3 182/2/3
f 186/2/3 185/2/3 184/2/3
f 186/2/3 182/2/3 176/2/3
f 187/2/3 175/2/3 185/2/3
f 187/2/3 185/2/3 186/2/3
f 188/2/3 175/2/3 187/2/3
f 189/2/3 175/2/3 188/2/3
f 190/2/3 188/2/3 187/2/3
f 191/2/3 188/2/3 190/2/3
f 193/2/3 190/2/3 187/2/3
f 194/3/3 191/3/3 190/3/3
f 194/2/3 190/2/3 193/2/3
f 195/2/3 188/2/3 191/2/3
f 195/3/3 191/3/3 194/3/3
f 196/2/3 188/2/3 195/2/3
f 198/2/3 194/2/3 193/2/3
f 198/2/3 197/2/3 196/2/3
f 198/2/3 196/2/3 195/2/3
f 198/2/3 195/2/3 194/2/3
f 198/2/3 193/2/3 192/2/3
f 199/2/3 197/2/3 198/2/3
f 200/2/3 197/2/3 199/2/3
f 201/2/3 197/2/3 200/2/3
f 202/2/3 198/2/3 192/2/3
f 203/3/3 199/3/3 198/3/3
f 203/2/3 198/2/3 202/2/3
f 204/2/3 200/2/3 199/2/3
f 204/3/3 199/3/3 203/3/3
f 205/2/3 200/2/3 204/2/3
f 206/2/3 200/2/3 205/2/3
f 207/3/3 201/3/3 200/3/3
f 207/2/3 200/2/3 206/2/3
f 208/2/3 202/2/3 192/2/3
f 209/3/3 203/3/3 202/3/3
f 209/2/3 202/2/3 208/2/3
f 209/3/3 204/3/3 203/3/3
f 209/3/3 205/3/3 204/3/3
f 210/2/3 206/2/3 205/2/3
f 210/3/3 205/3/3 209/3/3
f 211/3/3 207/3/3 206/3/3
f 211/2/3 206/2/3 210/2/3
f 212/3/3 201/3/3 207/3/3
f 212/3/3 207/3/3 211/3/3
f 217/2/3 216/2/3 215/2/3
f 218/2/3 216/2/3 217/2/3
f 219/3/3 218/3/3 217/3/3
f 219/2/3 216/2/3 218/2/3
f 220/2/3 216/2/3 219/2/3
f 221/2/3 217/2/3 215/2/3
f 222/3/3 219/3/3 217/3/3
f 222/2/3 217/2/3 221/2/3
f 222/3/3 220/3/3 219/3/3
f 223/3/3 220/3/3 222/3/3
f 224/2/3 223/2/3 222/2/3
f 224/3/3 220/3/3 223/3/3
f 225/2/3 216/2/3 220/2/3
f 225/3/3 220/3/3 224/3/3
f 226/2/3 224/2/3 222/2/3
f 226/2/3 222/2/3 221/2/3
f 226/2/3 225/2/3 224/2/3
f 227/2/3 225/2/3 226/2/3
f 228/2/3 225/2/3 227/2/3
f 229/2/3 225/2/3 228/2/3
f 230/3/3 229/3/3 228/3/3
f 231/3/3 229/3/3 230/3/3
f 232/2/3 225/2/3 229/2/3
f 232/3/3 229/3/3 231/3/3
f 233/2/3 232/2/3 231/2/3
f 234/2/3 225/2/3 232/2/3
f 234/2/3 232/2/3 233/2/3
f 235/3/3 234/3/3 233/3/3
f 235/2/3 225/2/3 234/2/3
f 236/2/3 225/2/3 235/2/3
f 237/3/3 235/3/3 233/3/3
f 237/3/3 236/3/3 235/3/3
f 238/2/3 225/2/3 236/2/3
f 238/3/3 236/3/3 237/3/3
f 239/2/3 216/2/3 225/2/3
f 239/2/3 225/2/3 238/2/3
f 240/2/3 214/2/3 213/2/3
f 241/2/3 214/2/3 240/2/3
f 244/2/3 243/2/3 242/2/3
f 245/2/3 243/2/3 244/2/3
f 248/2/3 247/2/3 246/2/3
f 249/2/3 247/2/3 248/2/3
f 252/2/3 251/2/3 250/2/3
f 253/2/3 251/2/3 252/2/3
f 256/1/3 255/1/3 254/1/3
f 257/1/3 255/1/3 256/1/3
f 260/1/3 259/1/3 258/1/3
f 261/1/3 259/1/3 260/1/3
f 264/1/3 263/1/3 262/1/3
f 265/1/3 263/1/3 264/1/3
f 268/1/3 267/1/3 266/1/3
f 269/1/3 267/1/3 268/1/3
f 272/2/3 271/2/3 270/2/3
f 273/2/3 271/2/3 272/2/3
f 276/2/3 274/2/3 273/2/3
f 277/2/3 274/2/3 276/2/3
f 278/2/3 276/2/3 275/2/3
f 279/2/3 276/2/3 278/2/3
f 280/2/4 281/2/4 284/2/4
f 281/3/4 282/3/4 284/3/4
f 282/2/4 283/2/4 285/2/4
f 284/3/4 282/3/4 285/3/4
f 280/2/4 284/2/4 286/2/4
f 284/2/4 285/2/4 286/2/4
f 285/2/4 283/2/4 287/2/4
f 286/2/4 285/2/4 287/2/4
f 287/2/4 288/2/4 292/2/4
f 292/2/4 288/2/4 293/2/4
f 289/2/4 290/2/4 294/2/4
f 290/3/4 291/3/4 295/3/4
f 294/2/4 290/2/4 295/2/4
f 291/2/4 292/2/4 296/2/4
f 295/3/4 291/3/4 296/3/4
f 289/2/4 294/2/4 297/2/4
f 294/3/4 295/3/4 298/3/4
f 297/2/4 294/2/4 298/2/4
f 295/2/4 296/2/4 299/2/4
f 298/3/4 295/3/4 299/3/4
f 296/2/4 292/2/4 300/2/4
f 299/2/4 296/2/4 300/2/4
f 301/1/4 302/1/4 303/1/4
f 303/1/4 302/1/4 304/1/4
f 305/1/4 306/1/4 307/1/4
f 307/1/4 306/1/4 308/1/4
f 309/1/4 310/1/4 311/1/4
f 311/1/4 310/1/4 312/1/4
f 313/1/4 314/1/4 315/1/4
f 315/1/4 314/1/4 316/1/4
f 317/2/4 318/2/4 319/2/4
f 319/2/4 318/2/4 320/2/4
f 321/2/4 322/2/4 323/2/4
f 323/2/4 322/2/4 324/2/4
f 325/2/4 326/2/4 327/2/4
f 327/2/4 326/2/4 328/2/4
f 331/2/4 332/2/4 333/2/4
f 333/2/4 332/2/4 334/2/4
f 334/2/4 332/2/4 335/2/4
f 335/2/4 332/2/4 336/2/4
f 336/2/4 332/2/4 337/2/4
f 337/2/4 332/2/4 338/2/4
f 336/2/4 337/2/4 339/2/4
f 337/3/4 338/3/4 340/3/4
f 339/2/4 337/2/4 340/2/4
f 336/2/4 339/2/4 341/2/4
f 339/3/4 340/3/4 341/3/4
f 340/3/4 338/3/4 342/3/4
f 341/3/4 340/3/4 342/3/4
f 341/2/4 342/2/4 343/2/4
f 342/3/4 338/3/4 343/3/4
f 338/2/4 332/2/4 344/2/4
f 343/3/4 338/3/4 344/3/4
f 341/2/4 343/2/4 345/2/4
f 336/2/4 341/2/4 345/2/4
f 343/2/4 344/2/4 345/2/4
f 344/2/4 332/2/4 346/2/4
f 345/2/4 344/2/4 346/2/4
f 329/2/4 330/2/4 347/2/4
f 347/2/4 330/2/4 348/2/4
f 349/2/4 350/2/4 351/2/4
f 351/2/4 350/2/4 352/2/4
f 349/2/4 351/2/4 353/2/4
f 353/2/4 351/2/4 354/2/4
f 351/3/4 352/3/4 355/3/4
f 354/2/4 351/2/4 355/2/4
f 352/2/4 350/2/4 356/2/4
f 355/3/4 352/3/4 356/3/4
f 349/2/4 353/2/4 357/2/4
f 353/3/4 354/3/4 358/3/4
f 357/2/4 353/2/4 358/2/4
f 354/2/4 355/2/4 359/2/4
f 358/3/4 354/3/4 359/3/4
f 355/2/4 356/2/4 359/2/4
f 359/2/4 356/2/4 360/2/4
f 356/2/4 350/2/4 361/2/4
f 360/2/4 356/2/4 361/2/4
f 361/2/4 350/2/4 362/2/4
f 360/2/4 361/2/4 363/2/4
f 363/2/4 361/2/4 364/2/4
f 360/2/4 363/2/4 365/2/4
f 363/3/4 364/3/4 366/3/4
f 365/2/4 363/2/4 366/2/4
f 360/2/4 365/2/4 368/2/4
f 366/3/4 364/3/4 369/3/4
f 365/3/4 366/3/4 369/3/4
f 364/2/4 361/2/4 370/2/4
f 369/3/4 364/3/4 370/3/4
f 370/2/4 361/2/4 371/2/4
f 365/3/4 369/3/4 373/3/4
f 367/2/4 368/2/4 373/2/4
f 368/2/4 365/2/4 373/2/4
f 371/2/4 372/2/4 374/2/4
f 373/3/4 369/3/4 374/3/4
f 370/2/4 371/2/4 374/2/4
f 369/2/4 370/2/4 374/2/4
f 367/2/4 373/2/4 375/2/4
f 373/2/4 374/2/4 375/2/4
f 375/2/4 374/2/4 376/2/4
f 367/2/4 375/2/4 377/2/4
f 375/3/4 376/3/4 378/3/4
f 377/2/4 375/2/4 378/2/4
f 376/2/4 374/2/4 379/2/4
f 378/3/4 376/3/4 379/3/4
f 367/2/4 377/2/4 380/2/4
f 377/3/4 378/3/4 381/3/4
f 380/2/4 377/2/4 381/2/4
f 378/2/4 379/2/4 382/2/4
f 381/3/4 378/3/4 382/3/4
f 379/2/4 374/2/4 383/2/4
f 382/2/4 379/2/4 383/2/4
f 367/2/4 380/2/4 384/2/4
f 381/3/4 382/3/4 385/3/4
f 384/2/4 380/2/4 385/2/4
f 380/3/4 381/3/4 385/3/4
f 382/3/4 383/3/4 385/3/4
f 383/2/4 374/2/4 386/2/4
f 385/3/4 383/3/4 386/3/4
f 374/2/4 372/2/4 387/2/4
f 386/2/4 374/2/4 387/2/4
f 392/2/5 389/2/5 388/2/5
f 393/2/5 389/2/5 392/2/5
f 394/2/5 391/2/5 390/2/5
f 395/2/5 391/2/5 394/2/5
f 400/2/5 397/2/5 396/2/5
f 401/2/5 397/2/5 400/2/5
f 402/2/5 399/2/5 398/2/5
f 403/2/5 399/2/5 402/2/5
f 407/2/5 405/2/5 404/2/5
f 408/2/5 405/2/5 407/2/5
f 410/2/5 407/2/5 406/2/5
f 411/2/5 407/2/5 410/2/5
f 412/2/5 409/2/5 408/2/5
f 413/2/5 409/2/5 412/2/5
f 414/2/5 412/2/5 411/2/5
f 415/2/5 412/2/5 414/2/5
f 424/3/5 421/3/5 420/3/5
f 425/2/5 422/2/5 421/2/5
f 425/3/5 421/3/5 424/3/5
f 426/3/5 423/3/5 422/3/5
f 426/2/5 422/2/5 425/2/5
f 427/3/5 423/3/5 426/3/5
f 428/2/5 417/2/5 416/2/5
f 429/2/5 417/2/5 428/2/5
f 430/2/5 419/2/5 418/2/5
f 431/2/5 419/2/5 430/2/5
f 432/2/5 425/2/5 424/2/5
f 432/2/5 426/2/5 425/2/5
f 432/2/5 427/2/5 426/2/5
f 433/2/5 427/2/5 432/2/5
f 438/1/5 435/1/5 434/1/5
f 439/1/5 435/1/5 438/1/5
f 440/1/5 437/1/5 436/1/5
f 441/1/5 437/1/5 440/1/5
f 444/2/5 443/2/5 442/2/5
f 445/2/5 443/2/5 444/2/5
f 446/2/5 443/2/5 445/2/5
f 447/2/5 443/2/5 446/2/5
f 448/2/5 443/2/5 447/2/5
f 449/2/5 443/2/5 448/2/5
f 450/2/5 444/2/5 442/2/5
f 451/2/5 444/2/5 450/2/5
f 452/2/5 446/2/5 445/2/5
f 453/2/5 446/2/5 452/2/5
f 454/2/5 448/2/5 447/2/5
f 455/2/5 448/2/5 454/2/5
f 456/2/5 443/2/5 449/2/5
f 457/2/5 443/2/5 456/2/5
f 466/2/5 459/2/5 458/2/5
f 467/2/5 461/2/5 460/2/5
f 468/2/5 461/2/5 467/2/5
f 469/2/5 463/2/5 462/2/5
f 470/2/5 463/2/5 469/2/5
f 471/2/5 465/2/5 464/2/5
f 472/2/5 470/2/5 469/2/5
f 472/2/5 471/2/5 470/2/5
f 472/2/5 466/2/5 458/2/5
f 472/2/5 468/2/5 467/2/5
f 472/2/5 469/2/5 468/2/5
f 472/2/5 467/2/5 466/2/5
f 473/2/5 465/2/5 471/2/5
f 473/2/5 471/2/5 472/2/5
f 474/2/6 475/2/6 476/2/6
f 476/2/6 475/2/6 477/2/6
f 478/2/6 479/2/6 480/2/6
f 480/2/6 479/2/6 481/2/6
f 484/2/6 485/2/6 487/2/6
f 485/3/6 486/3/6 487/3/6
f 487/3/6 486/3/6 488/3/6
f 487/2/6 488/2/6 489/2/6
f 488/3/6 486/3/6 489/3/6
f 489/3/6 486/3/6 490/3/6
f 482/2/6 483/2/6 491/2/6
f 491/2/6 483/2/6 492/2/6
f 484/2/6 487/2/6 493/2/6
f 487/2/6 489/2/6 493/2/6
f 489/2/6 490/2/6 493/2/6
f 493/2/6 490/2/6 494/2/6
f 494/2/6 490/2/6 495/2/6
f 496/2/6 497/2/6 500/2/6
f 500/2/6 497/2/6 501/2/6
f 498/2/6 499/2/6 502/2/6
f 502/2/6 499/2/6 503/2/6
f 504/2/6 505/2/6 506/2/6
f 506/2/6 505/2/6 507/2/6
f 507/2/6 505/2/6 508/2/6
f 508/2/6 505/2/6 509/2/6
f 509/2/6 505/2/6 510/2/6
f 510/2/6 505/2/6 511/2/6
f 507/2/6 508/2/6 512/2/6
f 512/2/6 508/2/6 513/2/6
f 509/2/6 510/2/6 514/2/6
f 514/2/6 510/2/6 515/2/6
f 516/2/6 517/2/6 521/2/6
f 521/2/6 517/2/6 522/2/6
f 518/2/6 519/2/6 523/2/6
f 523/2/6 519/2/6 524/2/6
f 523/2/6 524/2/6 526/2/6
f 524/2/6 525/2/6 526/2/6
f 522/2/6 523/2/6 526/2/6
f 521/2/6 522/2/6 526/2/6
f 520/2/6 521/2/6 526/2/6
f 526/2/6 525/2/6 527/2/6
f 528/2/6 529/2/6 530/2/6
f 530/2/6 529/2/6 531/2/6
