# MagicaVoxel @ Ephtracy

# group
o 

# material
mtllib FinishFlag.mtl
usemtl palette

# normals
vn -1 0 0
vn 1 0 0
vn 0 0 1
vn 0 0 -1
vn 0 -1 0
vn 0 1 0

# texcoords
vt 0.939453 0.5
vt 0.951172 0.5
vt 0.994141 0.5

# verts
v -2.6 0 0.1
v -2.6 0 0
v -2.6 8 0.1
v -2.6 8 0
v -2.4 0 0.1
v -2.4 0 0
v -2.4 4 0.1
v -2.4 4 0
v 2.6 4 0.1
v 2.6 4 0
v 2.6 4.5 0.1
v 2.6 4.5 0
v 2.6 5 0.1
v 2.6 5 0
v 2.6 5.5 0.1
v 2.6 5.5 0
v 2.6 6 0.1
v 2.6 6 0
v 2.6 6.5 0.1
v 2.6 6.5 0
v 2.6 7 0.1
v 2.6 7 0
v 2.6 7.5 0.1
v 2.6 7.5 0
v 2.6 8 0.1
v 2.6 8 0
v -2.6 0 0.1
v -2.6 8 0.1
v -2.4 0 0.1
v -2.4 4 0.1
v -2.4 4.5 0.1
v -2.4 5 0.1
v -2.4 5.5 0.1
v -2.4 6 0.1
v -2.4 6.5 0.1
v -2.4 7 0.1
v -2.4 7.5 0.1
v -2.4 8 0.1
v -1.9 4 0.1
v -1.9 4.5 0.1
v -1.9 5 0.1
v -1.9 5.5 0.1
v -1.9 6 0.1
v -1.9 6.5 0.1
v -1.9 7 0.1
v -1.9 7.5 0.1
v -1.9 8 0.1
v -1.4 4 0.1
v -1.4 4.5 0.1
v -1.4 5 0.1
v -1.4 5.5 0.1
v -1.4 6 0.1
v -1.4 6.5 0.1
v -1.4 7 0.1
v -1.4 7.5 0.1
v -1.4 8 0.1
v -0.9 4 0.1
v -0.9 4.5 0.1
v -0.9 5 0.1
v -0.9 5.5 0.1
v -0.9 6 0.1
v -0.9 6.5 0.1
v -0.9 7 0.1
v -0.9 7.5 0.1
v -0.9 8 0.1
v -0.4 4 0.1
v -0.4 4.5 0.1
v -0.4 5 0.1
v -0.4 5.5 0.1
v -0.4 6 0.1
v -0.4 6.5 0.1
v -0.4 7 0.1
v -0.4 7.5 0.1
v -0.4 8 0.1
v 0.0999999 4 0.1
v 0.0999999 4.5 0.1
v 0.0999999 5 0.1
v 0.0999999 5.5 0.1
v 0.0999999 6 0.1
v 0.0999999 6.5 0.1
v 0.0999999 7 0.1
v 0.0999999 7.5 0.1
v 0.0999999 8 0.1
v 0.6 4 0.1
v 0.6 4.5 0.1
v 0.6 5 0.1
v 0.6 5.5 0.1
v 0.6 6 0.1
v 0.6 6.5 0.1
v 0.6 7 0.1
v 0.6 7.5 0.1
v 0.6 8 0.1
v 1.1 4 0.1
v 1.1 4.5 0.1
v 1.1 5 0.1
v 1.1 5.5 0.1
v 1.1 6 0.1
v 1.1 6.5 0.1
v 1.1 7 0.1
v 1.1 7.5 0.1
v 1.1 8 0.1
v 1.6 4 0.1
v 1.6 4.5 0.1
v 1.6 5 0.1
v 1.6 5.5 0.1
v 1.6 6 0.1
v 1.6 6.5 0.1
v 1.6 7 0.1
v 1.6 7.5 0.1
v 1.6 8 0.1
v 2.1 4 0.1
v 2.1 4.5 0.1
v 2.1 5 0.1
v 2.1 5.5 0.1
v 2.1 6 0.1
v 2.1 6.5 0.1
v 2.1 7 0.1
v 2.1 7.5 0.1
v 2.1 8 0.1
v 2.6 4 0.1
v 2.6 4.5 0.1
v 2.6 5 0.1
v 2.6 5.5 0.1
v 2.6 6 0.1
v 2.6 6.5 0.1
v 2.6 7 0.1
v 2.6 7.5 0.1
v 2.6 8 0.1
v -2.6 0 0
v -2.6 8 0
v -2.4 0 0
v -2.4 4 0
v -2.4 4.5 0
v -2.4 5 0
v -2.4 5.5 0
v -2.4 6 0
v -2.4 6.5 0
v -2.4 7 0
v -2.4 7.5 0
v -2.4 8 0
v -1.9 4 0
v -1.9 4.5 0
v -1.9 5 0
v -1.9 5.5 0
v -1.9 6 0
v -1.9 6.5 0
v -1.9 7 0
v -1.9 7.5 0
v -1.9 8 0
v -1.4 4 0
v -1.4 4.5 0
v -1.4 5 0
v -1.4 5.5 0
v -1.4 6 0
v -1.4 6.5 0
v -1.4 7 0
v -1.4 7.5 0
v -1.4 8 0
v -0.9 4 0
v -0.9 4.5 0
v -0.9 5 0
v -0.9 5.5 0
v -0.9 6 0
v -0.9 6.5 0
v -0.9 7 0
v -0.9 7.5 0
v -0.9 8 0
v -0.4 4 0
v -0.4 4.5 0
v -0.4 5 0
v -0.4 5.5 0
v -0.4 6 0
v -0.4 6.5 0
v -0.4 7 0
v -0.4 7.5 0
v -0.4 8 0
v 0.0999999 4 0
v 0.0999999 4.5 0
v 0.0999999 5 0
v 0.0999999 5.5 0
v 0.0999999 6 0
v 0.0999999 6.5 0
v 0.0999999 7 0
v 0.0999999 7.5 0
v 0.0999999 8 0
v 0.6 4 0
v 0.6 4.5 0
v 0.6 5 0
v 0.6 5.5 0
v 0.6 6 0
v 0.6 6.5 0
v 0.6 7 0
v 0.6 7.5 0
v 0.6 8 0
v 1.1 4 0
v 1.1 4.5 0
v 1.1 5 0
v 1.1 5.5 0
v 1.1 6 0
v 1.1 6.5 0
v 1.1 7 0
v 1.1 7.5 0
v 1.1 8 0
v 1.6 4 0
v 1.6 4.5 0
v 1.6 5 0
v 1.6 5.5 0
v 1.6 6 0
v 1.6 6.5 0
v 1.6 7 0
v 1.6 7.5 0
v 1.6 8 0
v 2.1 4 0
v 2.1 4.5 0
v 2.1 5 0
v 2.1 5.5 0
v 2.1 6 0
v 2.1 6.5 0
v 2.1 7 0
v 2.1 7.5 0
v 2.1 8 0
v 2.6 4 0
v 2.6 4.5 0
v 2.6 5 0
v 2.6 5.5 0
v 2.6 6 0
v 2.6 6.5 0
v 2.6 7 0
v 2.6 7.5 0
v 2.6 8 0
v -2.6 0 0.1
v -2.4 0 0.1
v -2.6 0 0
v -2.4 0 0
v -2.4 4 0.1
v -1.9 4 0.1
v -1.4 4 0.1
v -0.9 4 0.1
v -0.4 4 0.1
v 0.0999999 4 0.1
v 0.6 4 0.1
v 1.1 4 0.1
v 1.6 4 0.1
v 2.1 4 0.1
v 2.6 4 0.1
v -2.4 4 0
v -1.9 4 0
v -1.4 4 0
v -0.9 4 0
v -0.4 4 0
v 0.0999999 4 0
v 0.6 4 0
v 1.1 4 0
v 1.6 4 0
v 2.1 4 0
v 2.6 4 0
v -2.6 8 0.1
v -2.4 8 0.1
v -1.9 8 0.1
v -1.4 8 0.1
v -0.9 8 0.1
v -0.4 8 0.1
v 0.0999999 8 0.1
v 0.6 8 0.1
v 1.1 8 0.1
v 1.6 8 0.1
v 2.1 8 0.1
v 2.6 8 0.1
v -2.6 8 0
v -2.4 8 0
v -1.9 8 0
v -1.4 8 0
v -0.9 8 0
v -0.4 8 0
v 0.0999999 8 0
v 0.6 8 0
v 1.1 8 0
v 1.6 8 0
v 2.1 8 0
v 2.6 8 0

# faces
f 3/1/1 2/1/1 1/1/1
f 4/1/1 2/1/1 3/1/1
f 5/1/2 6/1/2 7/1/2
f 7/1/2 6/1/2 8/1/2
f 9/3/2 10/3/2 11/3/2
f 11/3/2 10/3/2 12/3/2
f 11/2/2 12/2/2 13/2/2
f 13/2/2 12/2/2 14/2/2
f 13/3/2 14/3/2 15/3/2
f 15/3/2 14/3/2 16/3/2
f 15/2/2 16/2/2 17/2/2
f 17/2/2 16/2/2 18/2/2
f 17/3/2 18/3/2 19/3/2
f 19/3/2 18/3/2 20/3/2
f 19/2/2 20/2/2 21/2/2
f 21/2/2 20/2/2 22/2/2
f 21/3/2 22/3/2 23/3/2
f 23/3/2 22/3/2 24/3/2
f 23/2/2 24/2/2 25/2/2
f 25/2/2 24/2/2 26/2/2
f 29/1/3 28/1/3 27/1/3
f 30/1/3 28/1/3 29/1/3
f 31/1/3 28/1/3 30/1/3
f 32/1/3 28/1/3 31/1/3
f 33/1/3 28/1/3 32/1/3
f 34/1/3 28/1/3 33/1/3
f 35/1/3 28/1/3 34/1/3
f 36/1/3 28/1/3 35/1/3
f 37/1/3 28/1/3 36/1/3
f 38/1/3 28/1/3 37/1/3
f 39/2/3 31/2/3 30/2/3
f 40/3/3 32/3/3 31/3/3
f 40/2/3 31/2/3 39/2/3
f 41/2/3 33/2/3 32/2/3
f 41/3/3 32/3/3 40/3/3
f 42/3/3 34/3/3 33/3/3
f 42/2/3 33/2/3 41/2/3
f 43/2/3 35/2/3 34/2/3
f 43/3/3 34/3/3 42/3/3
f 44/3/3 36/3/3 35/3/3
f 44/2/3 35/2/3 43/2/3
f 45/2/3 37/2/3 36/2/3
f 45/3/3 36/3/3 44/3/3
f 46/3/3 38/3/3 37/3/3
f 46/2/3 37/2/3 45/2/3
f 47/3/3 38/3/3 46/3/3
f 48/3/3 40/3/3 39/3/3
f 49/2/3 41/2/3 40/2/3
f 49/3/3 40/3/3 48/3/3
f 50/3/3 42/3/3 41/3/3
f 50/2/3 41/2/3 49/2/3
f 51/2/3 43/2/3 42/2/3
f 51/3/3 42/3/3 50/3/3
f 52/3/3 44/3/3 43/3/3
f 52/2/3 43/2/3 51/2/3
f 53/2/3 45/2/3 44/2/3
f 53/3/3 44/3/3 52/3/3
f 54/3/3 46/3/3 45/3/3
f 54/2/3 45/2/3 53/2/3
f 55/2/3 47/2/3 46/2/3
f 55/3/3 46/3/3 54/3/3
f 56/2/3 47/2/3 55/2/3
f 57/2/3 49/2/3 48/2/3
f 58/3/3 50/3/3 49/3/3
f 58/2/3 49/2/3 57/2/3
f 59/2/3 51/2/3 50/2/3
f 59/3/3 50/3/3 58/3/3
f 60/3/3 52/3/3 51/3/3
f 60/2/3 51/2/3 59/2/3
f 61/2/3 53/2/3 52/2/3
f 61/3/3 52/3/3 60/3/3
f 62/3/3 54/3/3 53/3/3
f 62/2/3 53/2/3 61/2/3
f 63/2/3 55/2/3 54/2/3
f 63/3/3 54/3/3 62/3/3
f 64/3/3 56/3/3 55/3/3
f 64/2/3 55/2/3 63/2/3
f 65/3/3 56/3/3 64/3/3
f 66/3/3 58/3/3 57/3/3
f 67/2/3 59/2/3 58/2/3
f 67/3/3 58/3/3 66/3/3
f 68/3/3 60/3/3 59/3/3
f 68/2/3 59/2/3 67/2/3
f 69/2/3 61/2/3 60/2/3
f 69/3/3 60/3/3 68/3/3
f 70/3/3 62/3/3 61/3/3
f 70/2/3 61/2/3 69/2/3
f 71/2/3 63/2/3 62/2/3
f 71/3/3 62/3/3 70/3/3
f 72/3/3 64/3/3 63/3/3
f 72/2/3 63/2/3 71/2/3
f 73/2/3 65/2/3 64/2/3
f 73/3/3 64/3/3 72/3/3
f 74/2/3 65/2/3 73/2/3
f 75/2/3 67/2/3 66/2/3
f 76/3/3 68/3/3 67/3/3
f 76/2/3 67/2/3 75/2/3
f 77/2/3 69/2/3 68/2/3
f 77/3/3 68/3/3 76/3/3
f 78/3/3 70/3/3 69/3/3
f 78/2/3 69/2/3 77/2/3
f 79/2/3 71/2/3 70/2/3
f 79/3/3 70/3/3 78/3/3
f 80/3/3 72/3/3 71/3/3
f 80/2/3 71/2/3 79/2/3
f 81/2/3 73/2/3 72/2/3
f 81/3/3 72/3/3 80/3/3
f 82/3/3 74/3/3 73/3/3
f 82/2/3 73/2/3 81/2/3
f 83/3/3 74/3/3 82/3/3
f 84/3/3 76/3/3 75/3/3
f 85/2/3 77/2/3 76/2/3
f 85/3/3 76/3/3 84/3/3
f 86/3/3 78/3/3 77/3/3
f 86/2/3 77/2/3 85/2/3
f 87/2/3 79/2/3 78/2/3
f 87/3/3 78/3/3 86/3/3
f 88/3/3 80/3/3 79/3/3
f 88/2/3 79/2/3 87/2/3
f 89/2/3 81/2/3 80/2/3
f 89/3/3 80/3/3 88/3/3
f 90/3/3 82/3/3 81/3/3
f 90/2/3 81/2/3 89/2/3
f 91/2/3 83/2/3 82/2/3
f 91/3/3 82/3/3 90/3/3
f 92/2/3 83/2/3 91/2/3
f 93/2/3 85/2/3 84/2/3
f 94/3/3 86/3/3 85/3/3
f 94/2/3 85/2/3 93/2/3
f 95/2/3 87/2/3 86/2/3
f 95/3/3 86/3/3 94/3/3
f 96/3/3 88/3/3 87/3/3
f 96/2/3 87/2/3 95/2/3
f 97/2/3 89/2/3 88/2/3
f 97/3/3 88/3/3 96/3/3
f 98/3/3 90/3/3 89/3/3
f 98/2/3 89/2/3 97/2/3
f 99/2/3 91/2/3 90/2/3
f 99/3/3 90/3/3 98/3/3
f 100/3/3 92/3/3 91/3/3
f 100/2/3 91/2/3 99/2/3
f 101/3/3 92/3/3 100/3/3
f 102/3/3 94/3/3 93/3/3
f 103/2/3 95/2/3 94/2/3
f 103/3/3 94/3/3 102/3/3
f 104/3/3 96/3/3 95/3/3
f 104/2/3 95/2/3 103/2/3
f 105/2/3 97/2/3 96/2/3
f 105/3/3 96/3/3 104/3/3
f 106/3/3 98/3/3 97/3/3
f 106/2/3 97/2/3 105/2/3
f 107/2/3 99/2/3 98/2/3
f 107/3/3 98/3/3 106/3/3
f 108/3/3 100/3/3 99/3/3
f 108/2/3 99/2/3 107/2/3
f 109/2/3 101/2/3 100/2/3
f 109/3/3 100/3/3 108/3/3
f 110/2/3 101/2/3 109/2/3
f 111/2/3 103/2/3 102/2/3
f 112/3/3 104/3/3 103/3/3
f 112/2/3 103/2/3 111/2/3
f 113/2/3 105/2/3 104/2/3
f 113/3/3 104/3/3 112/3/3
f 114/3/3 106/3/3 105/3/3
f 114/2/3 105/2/3 113/2/3
f 115/2/3 107/2/3 106/2/3
f 115/3/3 106/3/3 114/3/3
f 116/3/3 108/3/3 107/3/3
f 116/2/3 107/2/3 115/2/3
f 117/2/3 109/2/3 108/2/3
f 117/3/3 108/3/3 116/3/3
f 118/3/3 110/3/3 109/3/3
f 118/2/3 109/2/3 117/2/3
f 119/3/3 110/3/3 118/3/3
f 120/3/3 112/3/3 111/3/3
f 121/2/3 113/2/3 112/2/3
f 121/3/3 112/3/3 120/3/3
f 122/3/3 114/3/3 113/3/3
f 122/2/3 113/2/3 121/2/3
f 123/2/3 115/2/3 114/2/3
f 123/3/3 114/3/3 122/3/3
f 124/3/3 116/3/3 115/3/3
f 124/2/3 115/2/3 123/2/3
f 125/2/3 117/2/3 116/2/3
f 125/3/3 116/3/3 124/3/3
f 126/3/3 118/3/3 117/3/3
f 126/2/3 117/2/3 125/2/3
f 127/2/3 119/2/3 118/2/3
f 127/3/3 118/3/3 126/3/3
f 128/2/3 119/2/3 127/2/3
f 129/1/4 130/1/4 131/1/4
f 131/1/4 130/1/4 132/1/4
f 132/1/4 130/1/4 133/1/4
f 133/1/4 130/1/4 134/1/4
f 134/1/4 130/1/4 135/1/4
f 135/1/4 130/1/4 136/1/4
f 136/1/4 130/1/4 137/1/4
f 137/1/4 130/1/4 138/1/4
f 138/1/4 130/1/4 139/1/4
f 139/1/4 130/1/4 140/1/4
f 132/2/4 133/2/4 141/2/4
f 133/3/4 134/3/4 142/3/4
f 141/2/4 133/2/4 142/2/4
f 134/2/4 135/2/4 143/2/4
f 142/3/4 134/3/4 143/3/4
f 135/3/4 136/3/4 144/3/4
f 143/2/4 135/2/4 144/2/4
f 136/2/4 137/2/4 145/2/4
f 144/3/4 136/3/4 145/3/4
f 137/3/4 138/3/4 146/3/4
f 145/2/4 137/2/4 146/2/4
f 138/2/4 139/2/4 147/2/4
f 146/3/4 138/3/4 147/3/4
f 139/3/4 140/3/4 148/3/4
f 147/2/4 139/2/4 148/2/4
f 148/3/4 140/3/4 149/3/4
f 141/3/4 142/3/4 150/3/4
f 142/2/4 143/2/4 151/2/4
f 150/3/4 142/3/4 151/3/4
f 143/3/4 144/3/4 152/3/4
f 151/2/4 143/2/4 152/2/4
f 144/2/4 145/2/4 153/2/4
f 152/3/4 144/3/4 153/3/4
f 145/3/4 146/3/4 154/3/4
f 153/2/4 145/2/4 154/2/4
f 146/2/4 147/2/4 155/2/4
f 154/3/4 146/3/4 155/3/4
f 147/3/4 148/3/4 156/3/4
f 155/2/4 147/2/4 156/2/4
f 148/2/4 149/2/4 157/2/4
f 156/3/4 148/3/4 157/3/4
f 157/2/4 149/2/4 158/2/4
f 150/2/4 151/2/4 159/2/4
f 151/3/4 152/3/4 160/3/4
f 159/2/4 151/2/4 160/2/4
f 152/2/4 153/2/4 161/2/4
f 160/3/4 152/3/4 161/3/4
f 153/3/4 154/3/4 162/3/4
f 161/2/4 153/2/4 162/2/4
f 154/2/4 155/2/4 163/2/4
f 162/3/4 154/3/4 163/3/4
f 155/3/4 156/3/4 164/3/4
f 163/2/4 155/2/4 164/2/4
f 156/2/4 157/2/4 165/2/4
f 164/3/4 156/3/4 165/3/4
f 157/3/4 158/3/4 166/3/4
f 165/2/4 157/2/4 166/2/4
f 166/3/4 158/3/4 167/3/4
f 159/3/4 160/3/4 168/3/4
f 160/2/4 161/2/4 169/2/4
f 168/3/4 160/3/4 169/3/4
f 161/3/4 162/3/4 170/3/4
f 169/2/4 161/2/4 170/2/4
f 162/2/4 163/2/4 171/2/4
f 170/3/4 162/3/4 171/3/4
f 163/3/4 164/3/4 172/3/4
f 171/2/4 163/2/4 172/2/4
f 164/2/4 165/2/4 173/2/4
f 172/3/4 164/3/4 173/3/4
f 165/3/4 166/3/4 174/3/4
f 173/2/4 165/2/4 174/2/4
f 166/2/4 167/2/4 175/2/4
f 174/3/4 166/3/4 175/3/4
f 175/2/4 167/2/4 176/2/4
f 168/2/4 169/2/4 177/2/4
f 169/3/4 170/3/4 178/3/4
f 177/2/4 169/2/4 178/2/4
f 170/2/4 171/2/4 179/2/4
f 178/3/4 170/3/4 179/3/4
f 171/3/4 172/3/4 180/3/4
f 179/2/4 171/2/4 180/2/4
f 172/2/4 173/2/4 181/2/4
f 180/3/4 172/3/4 181/3/4
f 173/3/4 174/3/4 182/3/4
f 181/2/4 173/2/4 182/2/4
f 174/2/4 175/2/4 183/2/4
f 182/3/4 174/3/4 183/3/4
f 175/3/4 176/3/4 184/3/4
f 183/2/4 175/2/4 184/2/4
f 184/3/4 176/3/4 185/3/4
f 177/3/4 178/3/4 186/3/4
f 178/2/4 179/2/4 187/2/4
f 186/3/4 178/3/4 187/3/4
f 179/3/4 180/3/4 188/3/4
f 187/2/4 179/2/4 188/2/4
f 180/2/4 181/2/4 189/2/4
f 188/3/4 180/3/4 189/3/4
f 181/3/4 182/3/4 190/3/4
f 189/2/4 181/2/4 190/2/4
f 182/2/4 183/2/4 191/2/4
f 190/3/4 182/3/4 191/3/4
f 183/3/4 184/3/4 192/3/4
f 191/2/4 183/2/4 192/2/4
f 184/2/4 185/2/4 193/2/4
f 192/3/4 184/3/4 193/3/4
f 193/2/4 185/2/4 194/2/4
f 186/2/4 187/2/4 195/2/4
f 187/3/4 188/3/4 196/3/4
f 195/2/4 187/2/4 196/2/4
f 188/2/4 189/2/4 197/2/4
f 196/3/4 188/3/4 197/3/4
f 189/3/4 190/3/4 198/3/4
f 197/2/4 189/2/4 198/2/4
f 190/2/4 191/2/4 199/2/4
f 198/3/4 190/3/4 199/3/4
f 191/3/4 192/3/4 200/3/4
f 199/2/4 191/2/4 200/2/4
f 192/2/4 193/2/4 201/2/4
f 200/3/4 192/3/4 201/3/4
f 193/3/4 194/3/4 202/3/4
f 201/2/4 193/2/4 202/2/4
f 202/3/4 194/3/4 203/3/4
f 195/3/4 196/3/4 204/3/4
f 196/2/4 197/2/4 205/2/4
f 204/3/4 196/3/4 205/3/4
f 197/3/4 198/3/4 206/3/4
f 205/2/4 197/2/4 206/2/4
f 198/2/4 199/2/4 207/2/4
f 206/3/4 198/3/4 207/3/4
f 199/3/4 200/3/4 208/3/4
f 207/2/4 199/2/4 208/2/4
f 200/2/4 201/2/4 209/2/4
f 208/3/4 200/3/4 209/3/4
f 201/3/4 202/3/4 210/3/4
f 209/2/4 201/2/4 210/2/4
f 202/2/4 203/2/4 211/2/4
f 210/3/4 202/3/4 211/3/4
f 211/2/4 203/2/4 212/2/4
f 204/2/4 205/2/4 213/2/4
f 205/3/4 206/3/4 214/3/4
f 213/2/4 205/2/4 214/2/4
f 206/2/4 207/2/4 215/2/4
f 214/3/4 206/3/4 215/3/4
f 207/3/4 208/3/4 216/3/4
f 215/2/4 207/2/4 216/2/4
f 208/2/4 209/2/4 217/2/4
f 216/3/4 208/3/4 217/3/4
f 209/3/4 210/3/4 218/3/4
f 217/2/4 209/2/4 218/2/4
f 210/2/4 211/2/4 219/2/4
f 218/3/4 210/3/4 219/3/4
f 211/3/4 212/3/4 220/3/4
f 219/2/4 211/2/4 220/2/4
f 220/3/4 212/3/4 221/3/4
f 213/3/4 214/3/4 222/3/4
f 214/2/4 215/2/4 223/2/4
f 222/3/4 214/3/4 223/3/4
f 215/3/4 216/3/4 224/3/4
f 223/2/4 215/2/4 224/2/4
f 216/2/4 217/2/4 225/2/4
f 224/3/4 216/3/4 225/3/4
f 217/3/4 218/3/4 226/3/4
f 225/2/4 217/2/4 226/2/4
f 218/2/4 219/2/4 227/2/4
f 226/3/4 218/3/4 227/3/4
f 219/3/4 220/3/4 228/3/4
f 227/2/4 219/2/4 228/2/4
f 220/2/4 221/2/4 229/2/4
f 228/3/4 220/3/4 229/3/4
f 229/2/4 221/2/4 230/2/4
f 233/1/5 232/1/5 231/1/5
f 234/1/5 232/1/5 233/1/5
f 246/2/5 236/2/5 235/2/5
f 247/3/5 237/3/5 236/3/5
f 247/2/5 236/2/5 246/2/5
f 248/2/5 238/2/5 237/2/5
f 248/3/5 237/3/5 247/3/5
f 249/3/5 239/3/5 238/3/5
f 249/2/5 238/2/5 248/2/5
f 250/2/5 240/2/5 239/2/5
f 250/3/5 239/3/5 249/3/5
f 251/3/5 241/3/5 240/3/5
f 251/2/5 240/2/5 250/2/5
f 252/2/5 242/2/5 241/2/5
f 252/3/5 241/3/5 251/3/5
f 253/3/5 243/3/5 242/3/5
f 253/2/5 242/2/5 252/2/5
f 254/2/5 244/2/5 243/2/5
f 254/3/5 243/3/5 253/3/5
f 255/3/5 245/3/5 244/3/5
f 255/2/5 244/2/5 254/2/5
f 256/3/5 245/3/5 255/3/5
f 257/1/6 258/1/6 269/1/6
f 258/3/6 259/3/6 270/3/6
f 269/1/6 258/1/6 270/1/6
f 259/2/6 260/2/6 271/2/6
f 270/3/6 259/3/6 271/3/6
f 260/3/6 261/3/6 272/3/6
f 271/2/6 260/2/6 272/2/6
f 261/2/6 262/2/6 273/2/6
f 272/3/6 261/3/6 273/3/6
f 262/3/6 263/3/6 274/3/6
f 273/2/6 262/2/6 274/2/6
f 263/2/6 264/2/6 275/2/6
f 274/3/6 263/3/6 275/3/6
f 264/3/6 265/3/6 276/3/6
f 275/2/6 264/2/6 276/2/6
f 265/2/6 266/2/6 277/2/6
f 276/3/6 265/3/6 277/3/6
f 266/3/6 267/3/6 278/3/6
f 277/2/6 266/2/6 278/2/6
f 267/2/6 268/2/6 279/2/6
f 278/3/6 267/3/6 279/3/6
f 279/2/6 268/2/6 280/2/6
